<svg width="650" height="560" viewBox="0 0 650 560" fill="none" xmlns="http://www.w3.org/2000/svg">
<g filter="url(#filter0_g_2338_28489)">
<path d="M316.429 176.529L314.841 175.26L315.12 173.187L313.532 171.918C313.678 171.703 313.911 171.195 313.672 170.882C313.433 170.568 312.744 169.936 312.429 169.659L312.569 168.623C313.475 168.862 315.047 169.027 314.09 167.773C312.894 166.205 311.905 165.72 311.997 165.029C312.09 164.338 310.27 164.796 309.925 164.75C309.579 164.703 309.486 165.394 308.058 165.554C306.915 165.681 304.601 166.846 303.587 167.413C304.125 166.9 305.298 165.674 305.686 164.882C306.171 163.893 306.311 162.856 307.739 162.697C310.39 161.295 310.39 161.295 310.529 160.259C310.669 159.223 311.452 158.625 310.808 158.186C309.081 157.954 307.467 159.495 306.384 159.701C305.301 159.907 301.82 162.251 301.474 162.205C301.198 162.168 299.977 162.003 299.402 161.926C299.202 161.664 299.03 161.031 299.933 160.59C301.062 160.039 301.109 159.694 303.368 158.591C305.626 157.488 303.76 158.292 306.018 157.19C308.277 156.087 308.669 155.788 308.715 155.443C308.753 155.166 309.869 153.839 310.423 153.211C310.699 152.896 311.115 152.249 310.562 152.174C309.871 152.081 310.124 152.819 308.257 153.622C306.39 154.426 305.168 155.668 303.394 155.781C301.975 155.871 300.867 156.261 300.491 156.445C300.684 155.885 301.373 154.594 302.59 153.914C304.111 153.064 304.503 152.765 306.025 151.915C307.242 151.235 308.976 149.147 309.692 148.188C309.9 147.513 310.523 146.19 311.352 146.302C312.389 146.441 314.508 146.375 314.554 146.03C314.601 145.684 314.003 144.9 314.441 144.256C314.88 143.611 314.534 143.565 316.102 142.369C317.356 141.413 318.254 140.315 318.547 139.885L320.965 140.211L321.609 140.649C321.678 141.01 321.894 141.672 322.207 141.433C322.599 141.134 322.945 141.181 323.337 140.882C323.65 140.643 323.591 139.861 323.522 139.5C323.769 139.416 324.054 139.22 323.225 139.108C322.396 138.997 321.497 138.875 321.151 138.829C320.737 138.421 319.918 137.537 319.955 137.261C319.992 136.985 320.524 136.517 320.785 136.318C321.46 136.526 322.897 136.813 323.249 136.298C323.69 135.654 326.059 136.325 325.163 135.149C324.266 133.973 325.097 133.03 324.359 133.282C323.621 133.534 321.806 133.993 321.757 134.338C321.709 134.684 320.531 135.58 320.234 135.188C319.937 134.797 317.957 133.827 319.133 132.93C320.309 132.033 320.696 131.733 321.436 131.481C322.176 131.229 323.509 131.761 323.602 131.07C323.695 130.379 323.142 129.249 323.881 128.997C324.62 128.745 325.813 130.313 325.953 129.276C326.065 128.447 327.108 127.673 327.616 127.39L327.802 126.008C327.604 125.747 327.137 125.215 326.859 125.178C326.511 125.131 326.511 125.131 325.475 124.991C324.439 124.852 323.998 125.496 323.748 124.759C323.497 124.022 323.845 124.068 323.245 123.284C322 122.061 321.108 120.886 320.621 121.876C319.855 124.938 320.36 126.413 320.267 127.103C320.192 127.656 320.679 129.269 320.931 130.007C320.556 130.191 319.737 130.549 319.458 130.512C319.111 130.465 318.929 131.847 318.19 132.099C317.598 132.301 317.19 132.551 317.06 132.651L316.414 132.212L316.6 130.83C316.432 130.339 316.028 129.346 315.751 129.309C315.406 129.262 313.77 128.339 313.677 129.029C313.584 129.72 314.434 131.242 311.923 131.607C309.412 131.972 307.543 132.775 306.854 132.683C306.258 131.899 308.03 131.786 308.86 130.843C309.691 129.899 310.727 130.039 311.511 129.441C312.295 128.843 312.782 127.854 313.174 127.555C313.566 127.256 313.958 126.957 313.705 126.22C313.453 125.482 312.713 125.734 312.806 125.043C312.348 123.223 313.477 122.672 312.441 122.532C311.404 122.393 311.451 122.047 310.76 121.954C310.069 121.861 310.166 121.171 308.988 122.067C307.81 122.964 309.928 122.897 307.717 123.655C305.507 124.412 304.192 126.345 303.847 126.299C304.033 124.917 303.437 124.133 304.172 123.88C304.907 123.628 305.164 124.366 305.992 123.422C306.821 122.479 306.433 122.778 307.308 121.489C308.007 120.458 308.937 119.833 309.314 119.649L309.799 118.659C310.123 118 310.535 116.859 309.593 117.577C308.415 118.473 309.655 119.695 307.193 119.715C304.73 119.735 303.647 119.941 302.219 120.1C300.79 120.26 297.748 121.96 300.1 120.167C304.411 116.879 302.639 116.992 305.148 116.626C308.098 115.617 308.74 116.055 308.88 115.019C308.991 114.189 308.591 113.69 308.377 113.544C308.522 113.329 308.673 112.88 308.122 112.806C307.433 112.713 306.696 112.966 304.922 113.079C303.503 113.169 304.324 112.295 301.72 113.351C303.24 112.5 306.349 110.809 306.627 110.846C307.533 110.406 307.914 109.144 307.991 108.568C308.514 108.17 309.292 107.266 308.224 106.841C307.155 106.416 306.167 106.447 305.806 106.515C305.952 106.3 306.203 105.654 306.038 104.788C305.873 103.922 305.004 102.89 304.59 102.483C304.344 102.567 303.567 102.767 302.424 102.894C300.996 103.054 299.707 102.177 301.919 101.419C304.131 100.662 303.002 101.214 304.869 100.41C306.362 99.767 306.168 98.592 305.885 98.0849C305.686 97.8236 305.315 97.0937 305.426 96.2646C305.538 95.4355 305.858 94.7987 306.004 94.5839C306.365 94.5153 307.037 94.2306 306.835 93.6406C306.633 93.0507 306.875 92.4737 307.021 92.2589C307.595 92.3362 308.813 92.5003 309.091 92.5378C309.369 92.5752 310.39 92.4782 310.865 92.425L312.136 90.8376C312.45 91.1145 313.098 91.5299 313.172 90.9772C313.265 90.2863 315.132 89.4827 313.451 88.9046C311.77 88.3265 311.379 88.6254 311.126 87.888C310.759 86.4317 311.053 84.9472 311.245 84.387C311.79 84.6948 312.889 85.2414 312.926 84.9651C312.973 84.6196 312.375 83.8357 311.823 82.7063C310.672 80.7927 310.375 80.401 310.076 80.009C309.777 79.617 309.87 78.9261 309.917 78.5807C309.954 78.3043 310.149 76.8534 310.242 76.1626C310.221 75.4562 310.287 74.2695 310.727 75.1728C311.531 77.0396 312.521 77.5246 312.335 78.9064C312.149 80.2882 312.355 81.371 312.7 81.4176C313.046 81.4641 311.478 82.6597 313.298 82.2015C315.258 80.7069 314.268 80.2219 315.351 80.0161C316.217 79.8514 317.094 80.1336 317.424 80.2952C317.47 79.9498 317.591 79.0516 317.702 78.2226C317.814 77.3935 318.165 76.5264 318.327 76.1964L319.363 76.336C319.317 76.6815 319.5 77.4096 320.606 77.5585C321.711 77.7074 322.678 77.8377 323.024 77.8842L323.256 76.157L324.432 75.2602L325.422 75.7453C325.973 76.8747 327.155 79.0737 327.468 78.8346C327.86 78.5356 328.597 78.2833 328.69 77.5924C328.783 76.9015 327.793 76.4164 327.886 75.7256C327.961 75.1728 326.398 74.5873 325.608 74.3635C324.932 74.1553 323.817 73.5596 324.757 72.8422C325.698 72.1248 326.779 70.887 327.202 70.3578L327.089 68.584L327.368 66.5113C327.483 66.5268 327.437 66.5206 326.332 66.3717C324.95 66.1856 324.697 65.4482 324.006 65.3551C323.315 65.2621 323.614 65.654 322.419 64.0861C322.052 62.6299 323.572 62.483 324.378 62.5916L326.564 64.6445L328.936 65.3157L329.075 64.2793L328.916 62.851L327.281 61.9275C327.197 61.6817 327.038 61.121 327.075 60.8446C327.122 60.4992 327.075 60.8446 327.261 59.4628C327.41 58.3574 327.771 57.4212 327.932 57.0913C328.032 57.2219 328.31 57.4235 328.623 57.1843C329.015 56.8854 330.397 57.0715 330.49 56.3806C330.564 55.8279 330.676 54.9989 330.722 54.6534C330.476 54.7376 330.003 54.7676 330.078 54.2149C330.152 53.6622 330.295 52.6028 330.357 52.1422C330.027 51.9806 329.386 51.519 329.46 50.9663C329.534 50.4136 329.154 49.7528 328.955 49.4915C328.855 49.3608 328.628 49.3068 328.517 50.1358C328.377 51.1722 328.284 51.8631 327.939 51.8165C327.593 51.77 329.526 53.0855 327.155 52.4144C325.257 51.8774 324.677 50.791 324.624 50.3149C325.168 50.6227 325.862 51.0444 324.278 50.2684C321.607 49.2052 322.205 49.9892 320.664 48.3747C318.87 46.0229 319.561 46.1159 318.319 44.8935C317.077 43.671 317.123 43.3256 316.432 43.2325C315.879 43.1581 314.359 42.9533 313.669 42.8603C312.993 42.6521 311.582 42.1572 311.343 41.8437C311.044 41.4517 310.4 41.0132 309.317 41.219C307.198 41.2853 305.816 41.0992 305.471 41.0526C305.125 41.0061 303.491 40.0826 302.707 40.6804C301.923 41.2782 301.671 40.5408 301.531 41.5771C301.42 42.4062 301.33 43.074 301.299 43.3043C301.728 43.5967 302.192 43.9873 300.608 43.2113C298.077 41.1118 297.432 40.6733 296.396 40.5337C295.567 40.422 294.04 39.7474 293.38 39.424L292.895 40.4138L290.317 38.6598C289.059 37.5525 286.972 35.8176 288.683 37.7363C290.634 39.9686 293.145 42.9095 294.157 44.1009C294.441 44.6081 294.791 45.6635 293.925 45.8282C292.842 46.034 293.048 47.1169 292.058 46.6319C291.068 46.1468 291.852 45.549 291.161 45.4559C290.47 45.3629 288.491 44.3928 288.976 43.403C289.46 42.4132 290.683 41.171 289.992 41.0779C289.301 40.9849 288.61 40.8918 288.059 39.7624C287.507 38.633 287.554 38.2876 287.255 37.8956C287.016 37.582 285.698 36.3963 285.069 35.8427C285.1 35.6124 284.904 34.9764 283.873 34.2747C282.584 33.3977 283.275 33.4908 281.94 32.9592C280.605 32.4277 279.661 31.5972 278.625 31.4576C277.589 31.318 274.526 30.5538 273.835 30.4607C273.144 30.3676 270.726 30.0419 270.38 29.9954C270.035 29.9489 271.623 31.2178 271.53 31.9087C271.437 32.5996 273.53 35.3435 270.998 33.244C268.467 31.1445 268.421 31.49 267.823 30.706C267.225 29.922 266.879 29.8755 266.189 29.7825C265.498 29.6894 265.498 29.6894 265.059 30.3337C264.621 30.9781 263.903 33.6951 262.615 32.8181C261.326 31.9411 261.764 31.2967 260.475 30.4197C259.187 29.5427 260.316 28.9914 258.635 28.4133C257.291 27.9508 254.975 26.8651 253.985 26.3801C254.277 25.9505 254.567 25.1923 253.387 25.5962C251.912 26.1009 250.876 25.9613 250.53 25.9148C250.185 25.8683 248.571 27.4094 247.534 27.2698C246.705 27.1581 244.992 27.8652 244.239 28.2328L244.306 30.352L243.382 31.9861C242.891 32.1544 241.857 32.3434 241.655 31.7535C241.403 31.0161 241.702 31.408 241.104 30.6241C240.506 29.8401 241.29 29.2423 239.815 29.7471C238.635 30.1509 236.741 31.6778 235.942 32.3908C235.503 33.0351 234.488 34.3052 233.936 34.2308C233.245 34.1377 232.76 35.1275 231.378 34.9414C229.996 34.7553 230.342 34.8018 228.96 34.6157C227.578 34.4295 227.047 35.7648 226.356 35.6717C225.665 35.5787 224.815 34.0573 223.087 33.8246C221.705 33.6385 220.439 33.4679 219.978 33.4059C219.564 32.9984 218.598 32.1648 218.045 32.0903C217.354 31.9973 218.344 32.4823 215.281 31.7181C211.827 31.2528 211.249 32.9335 210.811 33.5778C210.372 34.2222 210.186 35.604 209.402 36.2018C208.618 36.7996 208.386 38.5268 207.396 38.0418C206.406 37.5568 206.2 36.4739 206.247 36.1285C206.293 35.783 205.489 33.9162 205.629 32.8799C205.74 32.0508 206.645 30.5548 207.083 29.9105C206.999 29.6646 206.928 28.9751 207.316 28.1832C207.801 27.1934 207.249 26.064 206.764 27.0538C206.28 28.0436 206.094 29.4254 205.795 29.0334C205.496 28.6415 205.888 28.3425 205.243 27.904C204.599 27.4655 204.346 26.7281 203.562 27.3259C202.935 27.8042 202.132 29.2435 201.809 29.9034C201.855 29.5579 201.75 28.77 200.958 28.382C199.968 27.897 200.015 27.5515 199.278 27.8039C198.54 28.0563 198.055 29.0461 197.57 30.0359C197.085 31.0257 196.508 32.7064 195.77 32.9588C195.033 33.2111 195.817 32.6133 194.481 32.0818C192.063 31.756 193.976 30.6069 191.372 31.663C189.289 32.5078 188.246 33.1176 187.984 33.3169C188.084 33.4475 188.145 33.6902 187.592 33.6158C186.901 33.5227 185.473 33.682 184.689 34.2799C183.905 34.8777 184.457 36.0071 183.42 35.8675C182.384 35.7279 182.73 35.7744 180.657 35.4952C178.584 35.2161 179.069 34.2263 178.146 35.8604C177.222 37.4946 177.176 37.84 176.784 38.1389C176.47 38.3781 175.608 39.0357 175.216 39.3346C174.74 39.3877 173.659 39.4062 173.143 39.0554C172.499 38.6169 173.535 38.7565 171.416 38.8227C169.721 38.8757 167.3 39.7923 166.301 40.244L166.414 42.0177C165.922 42.186 164.672 42.4162 163.604 41.9909C162.536 41.5657 161.086 41.5345 160.495 41.5721C160.233 41.7714 159.702 42.2391 159.664 42.5154C159.618 42.8609 159.04 44.5416 158.994 44.887C158.956 45.1634 158.668 47.3052 158.529 48.3415C158.666 49.0634 158.623 50.2534 157.353 49.2382C154.038 47.7366 151.759 46.3745 151.274 47.3643C150.789 48.3541 151.135 48.4007 150.258 49.6894C149.381 50.9781 148.803 52.6588 147.674 53.21C146.544 53.7613 148.066 52.9111 145.322 55.0035C143.127 56.6775 142.255 57.7558 142.094 58.0857L140.386 60.3177L139.829 64.4631C140.327 65.1164 141.383 66.5013 141.622 66.8149C141.921 67.2069 141.828 67.8978 142.034 68.9806C142.24 70.0635 142.101 71.0998 142.008 71.7907C141.915 72.4816 141.151 75.5441 140.46 75.451C139.769 75.358 141.058 76.235 138.985 75.9558C135.531 75.4905 135.876 75.537 134.494 75.3509C133.113 75.1648 134.494 75.3509 132.422 75.0717C130.349 74.7925 129.957 75.0914 128.529 75.2508C127.101 75.4101 126.436 72.5069 125.626 75.9148C124.769 79.6682 124.975 80.7511 125.227 81.4885C125.48 82.2259 126.171 82.319 125.686 83.3088C125.201 84.2986 125.015 85.6804 124.623 85.9793C124.231 86.2782 123.653 87.9589 123.494 86.5306C123.334 85.1023 123.726 84.8034 123.427 84.4114C123.188 84.0978 122.313 84.8476 121.906 85.2616C121.514 85.5605 120.721 86.2274 120.684 86.5038C120.637 86.8492 120.358 88.9219 120.312 89.2674C120.275 89.5437 119.557 91.3931 119.202 92.2833C119.156 92.6287 118.787 93.2824 117.681 93.1335C116.299 92.9474 115.954 92.9009 115.608 92.8543C115.332 92.8171 114.218 93.6049 113.695 94.0034L113.715 96.468L117.449 94.8607C117.349 94.73 117.172 94.8235 117.263 96.2425C117.376 98.0162 116.984 98.3151 117.236 99.0526C117.489 99.79 117.881 99.4911 117.741 100.527C117.602 101.564 118.153 102.693 117.369 103.291C116.742 103.769 115.833 104.256 115.456 104.44C115.609 105.047 115.767 106.311 115.177 106.513C114.44 106.765 113.609 107.708 113.218 108.007C112.826 108.306 111.557 109.894 110.726 110.837C110.062 111.592 109.28 112.87 108.973 113.415L107.956 115.74C107.427 115.317 106.106 114.857 105.053 116.404C103.738 118.337 101.778 119.831 101.639 120.868C101.499 121.904 101.984 120.914 102.004 123.379C102.024 125.844 102.37 125.89 102.184 127.272C101.998 128.654 100.683 130.587 100.291 130.886C99.9771 131.125 98.9642 129.417 98.4969 128.534C98.5434 128.188 98.6736 127.221 98.8223 126.116C99.0083 124.734 98.4103 123.95 98.2973 122.176C98.1843 120.402 97.7724 118.237 98.8552 118.031C99.938 117.825 102.104 117.413 102.197 116.722C102.29 116.031 103.718 115.872 104.502 115.274C105.286 114.676 106.07 114.079 106.554 113.089C107.039 112.099 105.498 110.485 105.013 111.474C104.528 112.464 104.09 113.109 102.569 113.959C101.047 114.809 100.217 115.752 99.0876 116.304C97.2435 117.462 95.4894 120.391 94.8428 121.711C95.4341 121.673 95.8792 121.85 92.9296 122.86C89.2427 124.122 89.3356 123.431 87.8609 123.936C86.3861 124.44 86.8245 123.796 85.3497 124.301C84.1699 124.705 82.4311 125.08 81.7092 125.217C80.9719 125.47 79.3536 126.518 78.7797 128.691C78.0624 131.409 77.9429 134.91 77.8964 135.255C77.8592 135.531 79.7191 139.135 80.6536 140.902L82.0555 143.553C81.4332 143.821 80.1702 144.495 80.0958 145.047C80.0028 145.738 79.0129 145.253 80.5542 146.868C82.0955 148.482 83.4773 148.668 82.647 149.611C81.8166 150.555 79.9699 153.823 78.9336 153.683C78.1045 153.572 76.914 153.88 76.4224 154.049L73.8383 157.569C72.8087 158.251 70.6709 159.675 70.3574 159.914C69.9654 160.213 69.64 162.631 66.9429 164.378C64.2458 166.125 61.8012 168.609 61.3628 169.254C60.9244 169.898 60.1205 168.031 59.0841 167.892C58.0477 167.752 55.862 165.699 54.5932 167.287C53.3244 168.874 52.7465 170.555 52.0556 170.462C51.5029 170.388 48.2158 171.117 46.6414 171.491L48.1362 173.451C48.351 173.597 49.0158 173.71 49.9565 172.993C50.8971 172.276 52.2838 172.251 52.8595 172.329C53.2515 172.03 54.1736 171.451 54.7263 171.525C55.4172 171.618 53.5505 172.422 55.9686 172.748C58.3868 173.073 59.8151 172.914 58.9382 174.203C58.0614 175.491 61.3564 174.528 56.0087 177.677C50.661 180.825 47.6649 182.18 48.5618 183.356C49.4587 184.532 51.0465 185.801 51 186.147C50.9628 186.423 51.5515 187.276 51.8504 187.668C51.412 188.312 50.5258 189.67 50.4887 189.946C50.4422 190.292 49.2199 191.534 48.7814 192.178C48.343 192.823 48.25 193.514 48.456 194.597C48.6208 195.463 48.1218 197.951 47.8517 199.087C48.5426 199.18 49.2335 199.274 46.4699 198.901C43.0153 198.436 42.9223 199.127 42.1849 199.379C41.4475 199.632 37.6211 201.93 37.4816 202.966C37.3422 204.003 37.6147 207.205 38.2591 207.643C38.9035 208.082 37.5417 210.36 40.6973 210.433C43.8529 210.507 41.9862 211.31 44.8428 210.992C47.6993 210.673 50.071 211.344 50.0245 211.69C49.9873 211.966 50.1597 214.17 50.2506 215.237C50.5118 215.038 51.3799 214.686 52.7617 214.872C54.9939 216.58 53.479 212.155 54.509 217.569C55.3329 221.901 55.0473 223.152 54.8015 223.236L53.2073 227.242C52.4234 227.84 50.8278 229.243 50.7162 230.072C50.5767 231.108 51.2676 231.201 51.2412 234.011C51.2147 236.821 50.9158 236.429 51.5802 239.332C52.2447 242.236 52.0122 243.963 51.8728 244.999C51.7333 246.036 53.9455 245.278 51.6403 246.726C49.1957 249.211 48.1593 249.071 47.9734 250.453C47.8246 251.558 46.5563 254.014 45.9408 255.103C45.5488 255.402 44.7091 256.414 44.486 258.073C44.2071 260.145 43.4897 262.862 44.825 263.394C46.1603 263.925 47.0107 265.447 47.9076 266.623C48.6252 267.563 48.6186 269.18 48.5256 269.871C48.1713 270.761 47.9145 272.321 49.7215 271.439C51.5284 270.557 52.5027 269.938 52.764 269.739L52.4851 271.811L53.6809 273.379C54.0795 273.902 54.9273 275.095 55.1292 275.685C55.3817 276.422 57.109 276.655 56.1856 278.289C55.2623 279.923 54.5714 279.83 55.1693 280.614C55.6477 281.241 57.5167 282.337 58.3914 282.806C57.7227 283.42 57.0349 284.523 59.6337 284.029C62.2325 283.535 63.3872 284.886 63.6397 285.624C64.0073 286.377 64.7333 287.952 64.6961 288.228C64.6496 288.573 64.3242 290.991 65.2675 291.822C66.2109 292.652 67.1078 293.828 68.0047 295.004C68.7222 295.945 70.4207 297.088 71.1803 297.542C72.1015 297.666 74.0821 297.933 74.6348 298.008C75.3257 298.101 77.2589 299.416 78.6407 299.602C80.0226 299.788 80.0025 297.324 82.2547 301.496C85.4038 306.844 89.3898 305.974 88.5795 309.382C87.7691 312.79 86.4074 315.068 87.8357 314.909C89.264 314.75 91.8416 316.504 90.4133 316.663C88.985 316.822 89.191 317.905 87.5567 316.982C86.2493 316.243 89.9129 317.768 91.9081 318.623C92.6057 319.538 94.1484 321.316 94.7383 321.114C95.3282 320.912 96.8751 319.175 97.5748 318.331L101.581 319.926L98.3988 322.663C96.1401 323.765 92.9222 325.723 98.1199 324.735C106.357 324.157 111.871 324.477 113.599 324.71C113.922 324.05 115.024 323.003 116.847 324.092C119.126 325.454 121.544 325.78 121.265 327.853C121.042 329.511 120.707 331.998 120.568 333.034C119.131 334.13 115.86 336.129 114.277 335.352C106.75 331.173 107.487 330.921 105.873 332.462C104.259 334.003 103.521 334.255 102.737 334.853C102.11 335.332 100.784 337.169 100.2 338.029C100.2 338.029 99.9925 338.001 99.1634 337.889C98.127 337.749 97.7816 337.703 96.3998 337.517C95.2943 337.368 95.1419 336.409 95.2039 335.949L92.7858 335.623L92.4604 338.041C92.2057 339.062 91.4387 340.928 90.4077 340.227C89.1188 339.35 89.0259 340.04 89.3513 337.622C86.848 335.316 85.2214 336.949 84.721 338.054L83.2261 336.094L82.0968 336.645L82.5553 338.465C82.6239 338.826 82.5819 339.313 81.8644 338.372C80.9675 337.196 78.9412 336.572 78.5958 336.525C78.2503 336.479 78.3898 335.442 76.8685 336.293C75.3472 337.143 74.6099 337.395 74.5634 337.741C74.5169 338.086 73.4341 338.292 72.9492 339.282C72.4642 340.272 71.8198 339.833 70.7835 339.694C69.7471 339.554 68.3188 339.713 69.2622 340.544C70.2056 341.374 70.5045 341.766 70.8035 342.158C71.1025 342.55 72.5973 344.51 72.5508 344.855C72.5043 345.201 71.4014 342.942 71.8334 347.573C72.179 351.277 72.3718 353.155 72.4249 353.631C72.6707 353.547 73.1942 353.664 73.3218 354.807C73.4813 356.235 73.4813 356.235 73.3883 356.926C73.2953 357.617 73.7538 359.438 73.6608 360.128C73.5864 360.681 73.5058 361.28 73.4749 361.51C73.5967 362.347 73.831 364.09 73.7939 364.367C73.7474 364.712 73.9998 365.45 73.8604 366.486C73.7209 367.522 73.1895 368.858 74.1329 369.688C75.0763 370.519 76.0662 371.004 76.3186 371.741C76.5711 372.478 76.7571 371.097 77.169 373.262C77.581 375.428 77.5345 375.774 77.488 376.119C77.9292 377.023 78.4071 378.001 78.5909 378.378C78.5754 378.493 78.4474 378.921 78.0595 379.713C77.5746 380.703 77.3422 382.43 77.5946 383.167C77.8471 383.905 78.1461 384.297 78.744 385.081C79.3419 385.865 78.857 386.855 79.8469 387.34C80.8367 387.825 81.9196 387.619 81.4812 388.263C81.0427 388.908 80.9762 386.788 79.8669 389.804C78.9795 392.217 78.9259 393.312 79.0101 393.558C79.0787 393.919 79.2068 394.71 79.1696 394.986C79.1231 395.331 79.1431 397.796 79.0966 398.141C79.0502 398.487 78.1733 399.776 79.5086 400.307C80.5769 400.732 81.2116 401.592 81.3954 401.968C81.0034 402.267 80.5743 402.842 81.9933 402.752C83.4123 402.662 84.1967 402.932 84.4115 403.078C84.3805 403.308 84.3783 403.847 84.6174 404.161C84.8566 404.474 84.7614 405.704 84.684 406.28C83.9554 405.596 82.3601 404.208 81.8073 404.134C81.2546 404.059 79.9959 403.655 79.4357 403.463C79.2585 403.908 78.8764 405.005 78.7648 405.834C78.6532 406.663 77.5492 407.898 77.0111 408.412C77.2569 408.328 77.6382 407.933 77.197 407.03C76.6456 405.901 76.4396 404.818 76.5326 404.127C76.6256 403.436 76.765 402.4 76.4196 402.353C76.0741 402.306 76.1671 401.616 75.0378 402.167C73.9084 402.718 72.5266 402.532 73.377 404.053C74.0574 405.271 74.5331 406.788 74.6859 407.395L73.8091 408.684C73.7471 409.144 73.5354 410.194 73.1847 410.71C72.7462 411.354 73.0917 411.401 72.5603 412.736C72.0289 414.071 71.4975 415.407 71.7964 415.799C72.0954 416.191 72.8528 418.403 73.1518 418.795C73.391 419.108 75.2889 422.951 76.2079 424.834L78.4402 426.541C78.6395 426.803 79.1484 427.551 79.5895 428.455C80.141 429.584 80.3934 430.321 81.0843 430.414C81.7752 430.508 82.0742 430.9 82.7651 430.993C83.456 431.086 84.5389 430.88 84.8378 431.272C85.1368 431.664 85.8277 431.757 86.4721 432.195C87.1165 432.634 87.369 433.371 87.7144 433.418C88.0599 433.464 89.6942 434.388 90.0861 434.089C90.478 433.79 90.9165 433.146 91.6539 432.893C92.3913 432.641 93.0822 432.734 93.1287 432.388C93.1658 432.112 93.8217 430.723 94.145 430.063C94.5369 429.765 95.3899 429.176 95.6662 429.213C95.9426 429.25 96.335 428.6 96.4966 428.27C96.7424 428.186 97.2938 428.096 97.5329 428.41C97.8319 428.802 98.7753 429.632 98.6823 430.323C98.5893 431.014 97.4135 431.911 97.367 432.256C97.3298 432.532 97.8565 433.846 98.1244 434.468C98.4544 434.63 99.0266 435.082 98.6759 435.598C98.3251 436.113 98.1755 436.703 98.1445 436.933C97.9673 437.378 97.8296 438.227 98.6959 438.062C99.7787 437.856 99.8918 439.63 101.068 438.733C102.243 437.837 102.934 437.93 103.027 437.239C103.12 436.548 103.26 435.512 102.27 435.027C101.28 434.542 100.935 434.495 100.981 434.15C101.028 433.804 100.476 432.675 101.512 432.814C102.549 432.954 102.688 431.917 103.286 432.702C103.884 433.486 104.183 433.877 104.529 433.924C104.805 433.961 106.056 433.895 106.648 433.858C106.579 433.497 106.451 432.706 106.488 432.429C106.535 432.084 108.793 430.981 109.139 431.028C109.484 431.074 110.959 430.57 111.397 429.925C111.836 429.281 112.759 427.647 113.105 427.693C113.45 427.74 114.925 427.235 114.44 428.225C113.955 429.215 115.383 429.055 113.816 430.251C112.248 431.447 111.51 431.699 110.727 432.297C109.943 432.895 108.86 433.1 108.72 434.137C108.581 435.173 108.442 436.21 108.395 436.555C108.349 436.9 109.292 437.731 108.9 438.03C108.508 438.329 107.724 438.927 107.678 439.272C107.631 439.618 106.754 440.906 107.1 440.953C107.445 440.999 108.183 440.747 108.043 441.783C107.904 442.82 107.857 443.165 108.203 443.212C108.548 443.258 109.146 444.042 109.491 444.089C109.837 444.135 110.089 444.872 110.873 444.275C111.657 443.677 112.049 443.378 112.096 443.032C112.142 442.687 111.797 442.64 112.235 441.996C112.673 441.352 112.375 440.96 112.72 441.006C113.065 441.053 112.813 440.315 113.411 441.099C114.009 441.883 114.261 442.621 114.56 443.013C114.859 443.405 115.504 443.843 116.195 443.936C116.885 444.029 117.483 444.813 117.437 445.159C117.39 445.504 117.596 446.587 117.942 446.634C118.287 446.68 117.457 447.623 119.277 447.165C120.733 446.799 121.359 446.508 121.489 446.408L122.433 447.238C122.747 447.515 123.514 448.088 124.067 448.162C124.758 448.255 124.851 447.564 125.103 448.302C125.356 449.039 125.954 449.823 126.253 450.215C126.552 450.607 125.469 450.813 127.196 451.045C129.661 451.026 129.707 450.68 130.398 450.773C131.089 450.866 131.136 450.521 131.78 450.959C132.424 451.398 132.331 452.089 133.022 452.182C133.575 452.256 134.112 452.798 134.311 453.059C134.626 453.336 135.402 453.839 135.992 453.637C136.729 453.385 137.42 453.478 138.503 453.272C139.586 453.066 140.024 452.422 140.622 453.206C141.22 453.99 141.127 454.68 142.164 454.82C143.2 454.96 143.2 454.96 144.675 454.455C146.149 453.95 146.887 453.698 147.279 453.399C147.592 453.16 148.946 452.334 149.584 451.951L150.853 450.363C151.643 450.587 153.303 450.975 153.616 450.735C154.008 450.437 155.53 449.586 155.875 449.633C156.22 449.679 157.35 449.128 157.742 448.829C158.134 448.53 157.974 447.102 158.021 446.756C158.058 446.48 158.39 445.751 158.552 445.421C159.044 445.253 159.999 445.124 159.887 445.953C159.748 446.989 160.784 447.129 159.562 448.371C158.34 449.613 157.649 449.52 157.21 450.164C156.772 450.809 156.586 452.191 157.277 452.284C157.968 452.377 159.329 450.098 158.659 452.47C158.632 455.28 160.107 454.775 159.622 455.765C159.137 456.755 158.606 458.09 157.915 457.997C157.362 457.922 154.921 457.594 153.769 457.438C153.953 457.815 154.39 458.577 154.666 458.614C155.012 458.661 154.274 458.913 157.084 458.94C159.646 458.722 160.393 459.62 160.446 460.096C160.284 460.426 159.883 461.146 159.569 461.385C159.177 461.684 158.672 460.209 158.739 462.328C158.805 464.448 158.759 464.793 159.011 465.53C159.213 466.12 160.03 467.543 160.413 468.181L162.094 468.759L162.645 469.889C162.698 470.365 162.874 471.326 163.15 471.364C163.496 471.41 164.233 471.158 164.532 471.55C164.831 471.942 166.857 472.566 165.382 473.071C163.908 473.576 162.526 473.39 162.134 473.689C161.742 473.987 161.35 474.286 161.901 475.416C162.343 476.319 162.652 476.806 162.752 476.937L163.994 478.16C164.439 478.337 165.537 478.719 166.366 478.831C167.402 478.97 167.608 480.053 168.877 478.466C169.892 477.196 170.177 476.648 170.192 476.533L171.255 473.862L171.627 471.098C171.957 471.26 172.792 471.326 173.494 470.295C174.371 469.006 174.464 468.315 175.593 467.764C176.496 467.323 177.936 466.907 178.543 466.754C178.941 467.277 180.084 468.369 181.466 468.555C183.193 468.788 184.92 469.02 185.611 469.113C186.302 469.206 186.574 472.408 189.039 472.389C193.886 471.916 195.789 471.891 196.134 471.938C196.48 471.984 197.585 472.133 199.243 472.356C201.316 472.636 199.403 473.785 202.352 472.775C205.302 471.766 205.255 472.111 206.152 473.287C207.049 474.463 207.049 474.463 208.59 476.077C210.132 477.692 211.42 478.569 210.843 480.249C210.265 481.93 209.042 483.172 208.903 484.209C208.763 485.245 209.913 487.158 209.959 486.813C210.006 486.467 209.959 486.813 211.182 485.571C212.404 484.329 212.311 485.019 213.188 483.731C214.065 482.442 217.333 484.289 217.24 484.98C217.147 485.671 216.755 485.97 216.177 487.65C215.715 488.995 216.871 492.082 217.506 493.457C217.83 492.797 218.711 491.298 219.652 490.58C220.828 489.684 221.864 489.823 222.05 488.441C223.379 486.932 225.89 487.786 226.979 488.402C227.923 489.232 229.713 491.091 229.325 491.883C228.84 492.873 228.999 494.301 227.524 494.806C226.05 495.311 224.435 496.852 225.817 497.038C227.199 497.224 227.08 500.725 229.478 498.586C231.396 496.875 231.048 495.632 230.634 495.225L234.779 495.783L236.526 498.481C236.464 498.941 236.322 500.001 236.247 500.553C236.024 502.211 236.566 503.41 236.865 503.802C237.195 503.964 238.012 504.167 238.639 503.689C239.266 503.211 240.176 502.724 240.552 502.54L242.784 504.247L244.671 505.908C245.185 506.447 246.231 507.385 246.305 506.832C246.398 506.141 246.631 504.414 246.584 504.759C246.538 505.105 249.507 506.56 249.415 507.251C249.322 507.942 248.837 508.931 249.089 509.669C249.342 510.406 248.465 511.695 249.986 510.845C251.507 509.995 251.806 510.386 251.946 509.35C252.085 508.314 251.394 508.221 252.178 507.623C252.962 507.025 253.354 506.726 253.746 506.427C254.138 506.128 255.52 506.314 255.659 505.278C255.771 504.449 255.892 503.551 255.938 503.206C256.514 503.283 257.794 503.526 258.31 503.877C258.954 504.315 262.156 504.043 262.223 506.162C262.289 508.281 262.542 509.019 263 510.839C263.459 512.659 263.479 515.124 264.608 514.573C265.737 514.021 267.81 514.301 267.604 513.218C267.398 512.135 265.81 510.866 266.594 510.268C267.378 509.67 269.198 509.212 269.451 509.949C269.703 510.687 271.683 511.657 271.198 512.647C270.81 513.439 269.712 515.847 269.212 516.951C269.134 517.527 269.164 518.352 269.903 517.045C270.641 515.737 271.978 515.565 272.553 515.643C272.522 515.873 272.507 515.988 272.693 514.607C272.925 512.879 272.58 512.833 273.018 512.189C273.457 511.544 274.54 511.338 274.885 511.385C275.23 511.431 275.669 510.787 277.396 511.02C279.123 511.252 276.705 510.927 280.16 511.392C283.614 511.857 283.521 512.548 284.651 511.997C285.554 511.556 286.993 511.14 287.6 510.987C288.406 511.096 290.157 511.332 290.709 511.406C291.4 511.499 291.746 511.546 292.875 510.994C294.004 510.443 296.17 510.031 296.954 509.434C297.738 508.836 297.784 508.49 298.867 508.284C299.733 508.12 302.102 506.024 303.178 504.996C303.962 504.399 305.599 503.212 305.875 503.249C306.152 503.287 307.527 502.3 308.181 501.801C308.772 501.764 309.926 501.896 309.815 502.725C309.675 503.761 308.845 504.705 308.706 505.741C308.566 506.777 308.334 508.504 309.37 508.644C310.406 508.784 310.592 507.402 311.031 506.757C311.469 506.113 312.067 506.897 312.758 506.99C313.311 507.065 315.105 508.713 315.934 509.528C315.626 510.073 314.923 511.291 314.572 511.807C314.133 512.451 311.137 513.806 312.818 514.384C314.499 514.962 316.479 515.932 315.648 516.876C314.979 521.85 315.366 522.465 315.643 522.15L317.809 521.739C317.955 521.524 318.344 520.896 318.732 520.105C319.12 519.313 319.372 517.963 319.45 517.388L318.068 517.201C318.068 517.201 318.086 517.063 318.161 516.511C318.254 515.82 320.074 515.362 318.44 514.438C316.805 513.514 316.805 513.514 316.898 512.823C317.122 511.165 317.27 510.06 317.317 509.714L318.493 508.818L319.668 507.921L322.778 508.34C323.468 508.433 325.058 508.647 325.887 508.759C326.716 508.87 328.765 509.146 329.687 509.27C330.225 508.757 330.872 508.305 329.155 510.606C327.439 512.907 326.657 514.372 326.481 514.818C326.963 515.586 327.996 517.132 328.272 517.169C328.617 517.216 328.62 517.216 330.095 516.711C331.275 516.307 336.247 515.43 333.137 515.011C334.535 515.082 337.349 515.086 337.423 514.533C337.516 513.842 336.918 513.058 336.666 512.321C336.413 511.583 336.413 511.583 336.254 510.155C336.126 509.012 335.851 507.053 335.729 506.215C335.383 506.169 334.918 505.966 335.822 505.525C336.725 505.084 338.103 505.128 338.678 505.206C338.601 505.782 338.704 507.109 339.735 507.81C341.024 508.687 341.967 509.518 341.874 510.209C341.781 510.899 343.575 513.251 344.405 512.308C345.235 511.365 346.066 510.421 346.504 509.777C346.943 509.133 347.82 507.844 347.913 507.153C348.005 506.462 345.428 504.708 348.098 505.771C350.769 506.835 351.805 506.974 351.712 507.665C351.62 508.356 350.238 508.17 352.31 508.449C354.915 507.393 355.213 507.785 354.662 506.655C354.111 505.526 354.851 505.274 353.56 504.397C349.555 502.802 348.935 499.553 349.028 498.862C349.121 498.172 348.017 495.913 349.4 496.099C350.783 496.285 351.492 498.843 352.921 498.683C354.065 498.556 353.279 496.035 352.743 494.791C353.235 494.622 354.356 494.305 354.909 494.379C355.6 494.472 357.623 495.096 356.382 493.874C355.389 492.896 354.343 491.606 353.944 491.084C354.436 490.915 355.439 490.441 355.513 489.888C355.606 489.197 355.605 489.197 357.286 489.775C359.22 490.036 359.031 488.135 358.694 487.151L357.797 485.975C358.55 485.608 360.254 484.97 361.046 485.358C362.036 485.843 362.335 486.235 363.119 485.637C363.903 485.039 364.78 483.751 365.218 483.106C365.569 482.591 366.533 481.173 366.972 480.529C367.463 480.36 368.327 479.867 367.849 479.24C367.37 478.613 366.392 477.871 365.962 477.579C366.215 478.317 366.482 479.478 365.525 478.224C364.328 476.656 365.851 475.806 365.206 475.367C364.56 474.928 365.3 474.676 363.963 474.144C362.627 473.613 362.489 474.649 361.705 475.247C360.921 475.845 360.228 475.752 360.368 474.715C360.507 473.679 361.293 473.081 361.871 471.401C362.449 469.72 360.701 467.023 362.727 467.647C364.754 468.272 365.054 468.664 366.089 468.803C367.124 468.943 367.629 470.418 368.506 469.129C369.383 467.84 370.123 467.588 369.915 466.505C369.75 465.639 369.372 464.439 369.203 463.947C368.959 464.032 368.557 464.071 368.906 463.556C369.255 463.04 370.251 461.392 370.706 460.633L369.901 458.766C369.864 458.175 369.661 456.905 369.145 456.554C371.289 453.677 370.945 453.631 372.028 453.425C373.111 453.219 373.177 455.338 374.931 452.761C377.814 449.632 377.329 450.622 379.887 449.911C382.444 449.201 382.836 448.902 384.012 448.005C385.188 447.108 384.152 446.969 385.719 445.773C386.974 444.817 388.656 443.12 389.34 442.392L391.485 439.516L394.09 438.46C393.76 438.298 393.178 437.915 393.492 437.676C393.805 437.436 395.221 436.15 395.89 435.537C396.197 434.992 396.832 433.764 396.906 433.212C396.999 432.521 397.577 430.84 398.062 429.85C398.547 428.86 399.769 427.618 399.862 426.927C399.936 426.375 400.141 424.855 400.234 424.164C400.402 424.655 400.886 425.588 401.476 425.386C402.214 425.134 403.044 424.191 403.137 423.5C403.23 422.809 404.014 422.211 403.808 421.128C403.643 420.262 404.602 417.835 405.103 416.73C404.673 416.438 403.911 415.655 404.299 414.864C404.784 413.874 403.934 412.352 403.243 412.259C402.551 412.166 401.814 412.419 401.907 411.728C402 411.037 403.634 411.96 403.774 410.924C403.913 409.888 403.754 408.459 403.847 407.769C403.94 407.078 402.997 406.247 402.744 405.51C402.542 404.92 402.385 403.82 402.332 403.344L401.183 401.431C401.229 401.085 401.046 400.357 399.94 400.208C398.558 400.022 397.867 399.929 396.831 399.789C395.795 399.65 393.284 400.015 393.423 398.979C393.563 397.942 394.944 398.128 394.3 397.69C393.784 397.339 391.198 398.093 389.969 398.513C390.491 398.115 391.329 397.29 390.5 397.178C389.464 397.038 389.165 396.647 388.082 396.852C386.999 397.058 386.328 399.43 385.823 397.955C381.91 395.669 381.033 396.958 380.827 395.875C380.256 392.281 379.751 390.806 380.535 390.208C380.814 388.136 380.468 388.089 380.123 388.043C379.777 387.996 379.664 386.222 380.355 386.316C380.908 386.39 382.49 386.134 383.212 385.997C383.15 386.457 383.229 386.914 384.042 385.054C384.855 383.194 385.674 381.639 385.982 381.094C386.181 381.356 386.718 381.897 387.271 381.971C387.962 382.064 387.869 382.755 388.354 381.766C388.838 380.776 388.679 379.347 388.725 379.002C388.772 378.657 387.802 380.636 388.865 377.966C389.715 375.829 390.65 375.158 391.011 375.089C391.409 375.612 392.331 376.252 392.831 374.631C393.455 372.605 393.847 372.306 393.894 371.961C393.931 371.684 393.865 370.433 393.827 369.841L394.292 366.387L392.498 364.035C392.775 363.721 393.209 362.935 392.731 362.308C392.133 361.524 391.628 360.049 391.422 358.966C391.216 357.883 390.113 355.625 390.551 354.98C390.99 354.336 391.269 352.263 391.315 351.918C391.362 351.572 389.986 346.111 392.584 350.33C394.662 353.705 395.35 355.04 395.434 355.286C395.833 355.809 396.893 356.467 397.945 354.921C398.998 353.375 400.797 352.023 401.566 351.54L402.051 350.55L412.727 360.077C411.958 360.56 410.325 361.723 409.937 362.515C409.452 363.505 412.448 362.15 409.425 366.315C406.403 370.48 405.134 372.068 405.387 372.805C405.639 373.543 406.463 377.874 407.519 380.478C408.364 382.562 409.971 384.912 410.668 385.826L415.133 389.241L418.129 387.886C418.804 388.095 420.137 388.649 420.062 389.202C419.988 389.755 418.738 392.072 418.122 393.161C418.605 393.93 420.193 395.55 422.68 395.885C425.789 396.304 427.124 396.836 427.955 395.892C428.785 394.949 432.286 395.069 432.173 393.295C432.06 391.521 431.996 389.403 431.744 388.665C431.491 387.928 431.77 385.855 431.219 384.726C430.667 383.596 431.152 382.607 428.92 380.899C426.688 379.192 425.053 378.268 424.754 377.876C424.455 377.484 423.858 376.7 422.662 375.132C421.466 373.564 420.61 372.042 420.453 370.614C420.296 369.186 420.279 366.722 420.668 366.423C420.98 366.183 421.108 364.02 421.133 362.968L421.366 361.241L419.479 359.58C419.242 358.727 418.63 357.004 418.077 356.929C417.386 356.836 416.443 356.006 416.004 356.65C415.654 357.166 414.78 357.892 414.388 358.191L413.998 358.49L413.052 357.659L415.015 356.165C414.37 355.727 412.805 354.812 411.699 354.663C410.318 354.477 407.441 352.331 407.096 352.285C406.819 352.248 406.077 350.272 405.74 349.289C406.893 349.444 408.571 349.177 406.066 346.87C402.934 343.987 404.154 342.744 403.306 341.223C402.628 340.006 401.247 336.491 400.642 334.885L401.107 331.431C400.614 331.599 399.943 331.696 401.199 330.74C402.77 329.545 404.933 329.133 404.793 330.169C404.654 331.205 404.471 332.587 406.636 332.176C408.802 331.764 410.779 332.734 410.593 334.115C410.407 335.497 410.755 335.544 411.353 336.328C411.951 337.112 413.647 340.154 413.33 337.298C413.077 335.013 413.659 333.122 413.981 332.462C413.812 331.97 413.631 330.867 414.26 330.389C414.889 329.911 416.134 330.407 416.678 330.715L421.145 334.13C422.034 334.484 424.244 335.11 425.979 334.781C428.147 334.37 430.014 333.566 430.844 332.623C431.675 331.679 432.964 332.556 433.542 330.876C434.119 329.195 432.831 328.318 433.913 328.112C434.78 327.948 435.811 327.078 436.219 326.664C436.61 326.365 437.422 325.56 437.534 324.731C437.645 323.902 437.921 321.852 438.045 320.931L440.809 321.303C441.385 321.381 442.882 321.583 444.263 321.769C445.991 322.001 447.439 324.307 447.578 323.27C447.718 322.234 446.887 323.177 447.95 320.507C450.581 316.641 451.71 316.089 451.617 316.78C451.524 317.471 451.431 318.162 451.199 319.889C451.013 321.271 450.78 322.998 450.687 323.689L451.538 325.211L456.188 327.244C457.087 326.661 458.932 325.151 459.118 323.77C459.35 322.042 459.443 321.351 459.722 319.279C460.001 317.206 457.397 318.262 457.49 317.571C457.583 316.88 455.995 315.611 457.769 315.499C459.188 315.408 461.124 315.833 461.914 316.057C460.738 316.954 459.456 318.118 463.734 315.599C469.082 312.45 469.587 313.925 470.763 313.028C471.704 312.311 472.461 311.733 472.723 311.534C473.89 311.574 475.753 312.012 473.872 313.447C471.52 315.241 472.397 313.952 469.514 317.081C467.207 319.584 466.294 319.226 466.126 318.735L465.017 321.75L464.645 324.514C464.076 325.258 463.352 326.802 465.01 327.025C467.083 327.304 466.897 328.686 468.81 327.537C470.724 326.388 470.723 326.388 471.554 325.445C472.218 324.69 474.014 322.845 474.829 322.017L476.994 321.605L477.313 324.462C476.175 325.95 473.88 329.064 473.806 329.617C473.713 330.308 475.141 330.148 473.527 331.689C471.913 333.231 472.883 331.251 471.036 334.519C469.559 337.134 468.684 336.313 468.432 335.575L468.911 339.86L470.199 340.737C470.368 341.229 470.842 342.231 471.395 342.305C472.086 342.398 474.57 344.843 474.849 342.771C475.128 340.698 474.969 339.27 476.191 338.027C477.169 337.034 479.486 337.064 480.523 337.204C481.213 337.297 482.771 337.225 483.472 336.194C485.407 336.455 485.957 338.639 486.05 337.948L486.807 340.161C486.307 341.266 485.269 343.752 485.12 344.857C484.934 346.239 484.29 345.801 482.835 348.77C481.38 351.739 481.148 353.467 481.101 353.812C481.055 354.158 481.214 355.586 481.812 356.37C482.29 356.997 483.73 357.8 484.39 358.124C483.706 358.852 482.309 360.517 482.198 361.346C482.058 362.382 484.729 363.445 483.367 365.724C482.005 368.002 480.849 371.364 480.757 372.054C480.682 372.607 481.195 377.506 481.461 379.887C481.928 380.77 483.02 382.418 483.647 381.94C484.274 381.462 485.662 379.163 486.278 378.074L488.025 380.771C487.602 381.3 487.309 382.433 489.52 382.731C491.731 383.029 490.193 384.697 489.148 385.494C489.677 385.917 490.39 386.717 489.008 386.531C487.627 386.345 485.992 385.421 485.348 384.983L484.744 389.473L488.218 392.403C487.818 393.639 487.431 396.166 489.089 396.389C491.162 396.669 490.817 396.622 493.235 396.948C495.653 397.274 498.53 399.42 498.39 400.456C498.251 401.492 492.857 404.986 498.158 402.183C503.459 399.38 505.346 401.041 504.515 401.984C503.685 402.928 498.962 404.05 499.214 404.787C499.467 405.525 498.935 406.86 500.616 407.438C501.961 407.901 505.596 409.633 507.246 410.441L509.598 408.648L511.485 410.309C511.655 409.042 512.203 406.537 513.032 406.649C515.318 406.394 516.978 406.946 517.523 407.254C517.016 407.537 515.965 408.38 515.816 409.486C515.667 410.591 514.691 412.617 514.222 413.491L515.763 415.106C515.931 415.597 516.342 416.028 516.64 413.817C516.937 411.606 518.057 410.256 518.579 409.858C518.487 410.549 518.273 412.138 518.161 412.967C518.022 414.003 516.454 415.199 518.527 415.478C520.185 415.701 522.025 417.356 522.739 418.156C522.646 418.846 522.792 419.851 524.12 418.342C525.449 416.832 527.252 419.467 527.987 420.973L530.338 419.179C530.569 419.21 531.168 419.291 531.72 419.365C532.411 419.458 531.787 421.485 532.823 421.624C533.859 421.764 533.859 421.764 535.241 421.95C536.623 422.136 538.835 421.379 538.696 422.415C538.556 423.451 535.308 424.069 538.37 424.833C541.433 425.597 544.635 425.325 545.465 424.382C546.13 423.627 548.612 425.392 549.77 426.369L552.281 426.004L554.607 427.02L553.291 428.953L553.059 430.681L554.095 430.82L556.055 429.326L556.427 426.562L553.896 424.463L552.514 424.276L555.902 422.623L558.944 420.922C559.755 423.61 561.699 428.679 562.99 427.446C564.282 426.213 565.743 424.417 566.312 423.673L570.245 428.423L569.641 432.914L574.131 433.519L573.574 437.664C574.572 437.213 576.592 436.664 576.683 438.083C576.773 439.502 576.317 441.668 576.078 442.574L577.761 443.152L576.837 444.786C576.377 444.724 575.18 444.563 574.074 444.414C571.034 444.005 569.228 444.699 568.706 445.098C568.821 445.113 569.259 445.172 570.088 445.284C570.917 445.396 571.585 445.486 571.815 445.517C571.868 445.993 572.182 446.973 573.011 447.085C574.047 447.224 576.605 446.514 576.465 447.55C576.326 448.586 575.635 448.493 574.459 449.39C571.897 449.608 570.473 450.26 570.081 450.559L570.932 452.08C571.346 452.488 572.165 453.372 572.127 453.648C572.09 453.924 571.526 454.622 571.249 454.936L569.709 453.322L568.925 453.92L569.523 454.704L569.776 455.441L571.063 456.318C570.801 456.517 570.407 457.004 570.924 457.355C571.44 457.706 572.69 458.179 573.25 458.371C573.664 458.779 574.398 459.229 574.033 457.773C573.576 455.953 573.669 455.262 573.762 454.572C573.855 453.881 574.34 452.891 574.433 452.2C574.526 451.509 573.878 451.07 574.916 451.21C575.746 451.322 577.136 451.275 577.728 451.237C577.728 451.237 577.778 451.384 577.98 451.974C578.182 452.564 578.769 453.956 579.037 454.579L580.325 455.456L582.651 456.472L583.846 458.04C584.291 458.217 585.025 458.691 584.398 459.17C583.696 460.2 584.195 462.425 584.532 463.408C584.041 463.576 582.901 464.033 582.273 464.511C581.488 465.108 583.171 465.687 580.267 466.351C577.944 466.882 575.827 467.98 575.059 468.463C574.997 468.923 574.95 469.785 575.264 469.546C575.656 469.247 577.036 469.433 578.512 468.928C579.988 468.423 579.595 468.722 581.07 468.217C584.665 467.646 584.32 467.6 584.871 468.729C585.312 469.633 585.604 471.993 585.695 473.061C585.58 473.045 585.142 472.986 584.313 472.875C582.856 473.241 584.441 474.533 585.416 475.133C585.861 475.311 586.466 475.697 585.323 475.824C583.277 476.393 582.242 476.933 581.98 477.133L580.6 476.947C580.307 477.376 579.997 478.272 581.104 478.421C582.487 478.608 584.308 478.15 584.467 479.578C584.594 480.72 584.533 481.697 584.486 482.042C584.701 482.189 584.915 482.522 584.048 482.687C583.182 482.851 582.212 483.26 581.836 483.444C582.082 483.36 582.454 483.035 581.975 482.408C581.496 481.78 580.456 481.499 579.995 481.437L578.521 481.942L578.931 484.108L577.206 483.875C577.367 483.545 577.474 482.927 576.608 483.091C574.966 484.84 575.153 486.061 575.452 486.453C575.681 486.484 576.141 486.546 576.141 486.546C576.141 486.546 576.697 485.917 576.973 485.603C577.595 485.335 578.811 485.006 578.699 485.835C579.067 487.291 580.54 487.842 581.231 487.935C581.132 487.804 581.09 487.423 581.717 486.945C583.65 488.26 584.248 489.044 583.165 489.25C582.298 489.415 581.528 490.085 581.252 490.399C580.959 490.829 580.67 491.587 581.849 491.183C583.029 490.779 584.277 490.572 584.753 490.519C585.322 489.775 586.354 488.554 585.929 489.622C585.504 490.691 585.304 491.649 585.258 491.994C585.426 492.486 585.496 493.363 584.427 492.937C583.092 492.406 582.84 491.668 582.7 492.705C582.561 493.741 582.076 494.731 582.421 494.777C582.697 494.815 582.549 496.436 582.441 497.242C581.865 497.164 580.645 497 580.369 496.963C580.092 496.926 578.977 497.713 578.454 498.112L579.604 500.025L581.817 499.268L581.491 501.686L579.625 502.49C578.672 502.596 577.233 503.012 579.093 503.825C581.81 504.543 582.94 503.992 583.079 502.955C583.191 502.126 583.741 501.52 584.003 501.321C583.887 501.306 583.855 501.372 584.647 501.76C585.637 502.245 585.889 502.982 586.281 502.683C586.673 502.384 587.364 502.477 587.457 501.786C587.531 501.234 587.705 499.944 587.783 499.368L586.746 499.229L585.71 499.089L584.328 498.903L584.215 497.129C584.231 497.014 584.211 496.636 584.009 496.046C583.807 495.456 584.111 494.419 584.288 493.974L585.53 495.196C585.845 495.473 586.63 495.907 587.258 495.429C588.526 493.841 589.011 492.851 589.104 492.16C589.179 491.608 589.184 489.826 589.177 489.005L589.755 487.324L589.596 485.896L590.286 485.989L590.426 484.953C590.703 484.638 591.187 484 590.911 483.963C590.634 483.926 589.904 483.593 589.573 483.431C589.689 483.447 589.94 483.34 590.014 482.787C590.107 482.096 590.153 481.751 590.2 481.405C590.246 481.06 590.384 480.023 590.038 479.977C589.693 479.93 588.657 479.79 588.703 479.445C588.749 479.1 589.093 479.146 589.832 478.894C590.572 478.642 591.01 477.997 591.057 477.652C591.094 477.375 591.458 476.416 591.635 475.971L591.728 475.28L592.306 473.6L591.998 471.8L590.995 470.258L590.882 468.484L591.067 467.102L590.656 464.936C590.226 464.644 589.376 463.99 589.413 463.714C589.46 463.368 590.728 461.781 590.775 461.435C590.821 461.09 590.961 460.054 590.914 460.399C590.877 460.675 591.559 460.838 591.904 460.884C592.135 460.915 592.657 461.056 592.896 461.369C593.195 461.761 593.448 462.499 593.401 462.844C593.355 463.19 594.249 464.365 594.203 464.711C594.166 464.987 595.277 465.442 595.837 465.634C596.167 465.796 596.906 466.06 597.219 465.82C597.611 465.521 598.003 465.223 598.049 464.877C598.096 464.532 598.096 464.532 598.142 464.186C598.189 463.841 597.797 464.14 597.498 463.748C597.199 463.356 596.508 463.263 595.91 462.479C595.432 461.852 594.914 461.172 594.714 460.911C594.615 460.78 594.279 460.501 593.727 460.426C593.036 460.333 592.735 459.941 592.389 459.894C592.113 459.857 591.583 459.786 591.353 459.755C591.123 459.724 590.681 459.523 590.755 458.971C590.829 458.418 590.91 457.819 590.941 457.589L591.379 456.945L591.864 455.955C591.765 455.824 591.685 455.72 592.163 456.347C592.761 457.131 593.463 458.632 593.614 458.652C593.764 458.673 594.508 459.828 594.555 459.483C594.601 459.137 594.947 459.184 594.993 458.838C595.03 458.562 595.071 458.262 595.086 458.147L596.076 458.632L597.02 459.463L598.056 459.602C598.071 459.487 598.181 459.197 598.494 458.958C598.808 458.719 598.749 457.937 598.68 457.576L598.428 456.839L597.531 455.663C597.416 455.647 597.213 455.409 597.325 454.58C597.464 453.544 597.511 453.198 597.557 452.853C597.604 452.507 596.959 452.069 596.614 452.022C596.269 451.976 595.58 451.883 595.188 452.182C594.796 452.481 594.796 452.481 594.404 452.78C594.012 453.079 593.919 453.77 593.872 454.115C593.826 454.46 593.731 455.151 593.385 455.105C593.04 455.058 593.87 454.115 592.834 453.975C591.798 453.836 591.844 453.49 591.406 454.134C591.055 454.65 590.664 455.289 590.513 455.544L588.895 454.5C588.68 454.353 588.329 454.001 588.642 453.762C589.034 453.463 589.688 453.551 589.926 453.232C590.116 452.976 590.791 452.528 591.104 452.335L591.479 450.979C591.353 450.493 591.036 449.512 590.77 449.477C590.504 449.441 589.705 448.864 589.339 448.581C589.109 448.55 588.579 448.478 588.303 448.441C588.027 448.404 586.806 448.239 586.23 448.162L585.978 447.424C586.256 447.11 586.819 446.412 586.856 446.136C586.894 445.859 587.027 444.869 587.089 444.409C587.104 444.293 586.996 444.044 586.443 443.97C585.891 443.896 585.646 442.925 585.592 442.449C585.362 442.418 584.833 442.346 584.557 442.309C584.28 442.272 583.32 441.908 582.875 441.731C583.021 441.516 583.392 441.027 583.706 440.788C584.098 440.489 583.706 440.788 584.49 440.19C585.273 439.592 585.501 439.974 585.457 439.265C584.63 438.309 584.024 437.548 583.825 437.287C583.872 436.941 584.034 436.26 584.31 436.297C584.655 436.343 585.047 436.044 585.094 435.699C585.14 435.353 585.233 434.663 584.934 434.271C584.635 433.879 584.981 433.925 584.29 433.832C583.599 433.739 582.218 433.553 581.872 433.506C581.596 433.469 581.066 433.398 580.835 433.367L579.64 431.799C579.456 431.422 579.226 430.688 579.779 430.763C580.332 430.837 580.931 430.918 581.161 430.949C581.537 430.765 582.309 430.259 582.384 429.707C582.458 429.154 581.847 428.462 581.533 428.185C581.303 428.154 580.645 427.995 579.852 427.607C578.862 427.122 579.458 427.906 578.17 427.029C576.882 426.152 575.8 426.358 575.847 426.012C575.893 425.667 575.94 425.322 575.986 424.976C576.023 424.7 576.355 423.971 576.517 423.641L577.6 423.435C577.798 423.696 578.265 424.228 578.542 424.265C578.819 424.303 579.35 424.374 579.58 424.405L580.709 423.854C580.924 424 581.422 424.301 581.699 424.339C582.044 424.385 583.286 425.608 583.426 424.571C583.538 423.742 583.366 423.274 583.267 423.143L584.994 423.376L585.339 423.422C585.47 423.323 585.74 423.054 585.778 422.778C585.815 422.502 585.089 420.927 584.721 420.174C584.768 419.828 584.801 419.059 584.562 418.745C584.263 418.353 583.572 418.26 583.273 417.868C583.034 417.555 582.208 416.201 581.825 415.563C581.725 415.432 581.407 415.014 580.928 414.387C580.449 413.76 579.931 413.08 579.732 412.819L578.396 412.288C578.182 412.141 577.684 411.84 577.407 411.803C577.129 411.765 576.109 411.862 575.633 411.915C575.471 412.245 575.208 412.984 575.447 413.297C575.746 413.689 576.344 414.473 576.251 415.164C576.176 415.717 576.525 416.608 576.709 416.984L578.045 417.516C578.045 417.516 578.104 417.594 578.344 417.908C578.643 418.3 578.893 419.037 579.193 419.429C579.493 419.821 579.839 419.868 580.184 419.914C580.529 419.961 580.23 419.569 581.566 420.1C582.634 420.526 583.131 420.663 583.246 420.678C583.561 420.955 584.043 421.559 583.453 421.761C581.959 422.404 581.355 422.534 581.24 422.518L580.157 422.724C579.989 422.233 579.584 421.24 579.307 421.203C578.961 421.156 577.327 420.233 577.374 419.887C577.411 419.611 575.839 419.095 575.049 418.871L574.61 419.515C574.411 419.254 574.021 418.662 574.059 418.386C574.105 418.04 574.497 417.741 574.198 417.349C573.899 416.957 573.946 416.612 573.255 416.519C572.564 416.426 571.182 416.24 571.435 416.977C571.687 417.715 571.548 418.751 571.847 419.143C572.086 419.456 573.036 419.889 573.481 420.066C573.795 420.343 574.336 421.026 573.986 421.541C573.635 422.057 573.516 422.416 573.501 422.531C573.14 422.6 572.308 422.511 571.867 421.608C571.314 420.478 571.661 420.525 571.063 419.741C570.465 418.957 570.764 419.349 570.166 418.565C569.568 417.781 570.305 417.528 569.269 417.389C568.44 417.277 567.541 417.156 567.195 417.11L565.768 417.269L564.778 416.784C564.824 416.439 564.789 415.66 564.273 415.309C563.758 414.958 562.8 414.056 562.386 413.648L560.457 413.388C560.417 413.266 560.389 412.887 560.596 412.352C560.804 411.817 560.776 411.438 560.736 411.316C560.703 411.194 560.501 410.932 559.948 410.858C559.257 410.765 558.566 410.672 558.174 410.971C557.861 411.21 557.458 411.929 557.297 412.259C556.783 411.721 555.765 410.576 555.802 410.299C555.839 410.023 554.821 408.878 554.308 408.34L554.54 406.612C555.016 406.559 555.978 406.384 556.015 406.108C556.052 405.831 556.322 405.563 556.453 405.463L556.387 403.344C556.433 402.999 556.388 402.289 555.836 402.215C555.283 402.14 553.364 401.413 552.474 401.058L550.102 400.387L549.896 399.304L550.428 397.969L551.305 396.68L552.64 397.212L553.63 397.697C553.614 397.812 553.721 398.061 554.274 398.136C554.965 398.229 555.656 398.322 556.692 398.461C557.521 398.573 559.571 398.849 560.492 398.973C560.709 398.65 561.177 398.01 561.323 398.03C561.468 398.049 561.875 397.87 562.06 397.777C562.155 397.79 562.377 397.891 562.502 398.189C562.658 398.561 562.612 398.907 562.957 398.953C563.302 399 564.684 399.186 565.03 399.233C565.375 399.279 565.674 399.671 566.411 399.419C567.352 398.701 568.172 397.663 568.464 397.233L568.099 394.722L568.929 393.779C568.876 393.303 568.779 392.281 568.816 392.005C568.853 391.729 568.694 391.168 568.61 390.922C568.267 390.859 567.585 390.702 567.6 390.584C567.62 390.437 567.275 390.391 566.584 390.297C565.893 390.204 565.547 390.158 565.202 390.111C564.857 390.065 564.667 390.391 564.119 390.317C563.571 390.243 563.056 390.376 562.392 390.085C561.728 389.793 561.01 389.898 561.057 389.553C561.103 389.208 560.804 388.816 560.851 388.47C560.897 388.125 561.336 387.48 562.026 387.573C562.717 387.666 562.182 387.946 563.063 387.713C563.767 387.526 564.324 387.41 564.515 387.376L564.93 386.909L564.817 385.136C564.732 384.89 564.426 384.38 563.873 384.305C563.182 384.212 562.538 383.773 562.491 384.119C562.445 384.464 562.491 384.119 562.053 384.763C561.614 385.408 561.614 385.408 561.223 385.707C560.831 386.005 561.754 384.371 560.439 386.304C559.386 387.851 559.061 388.698 559.03 388.928C559.014 389.043 558.922 389.195 558.684 388.882C558.386 388.49 558.455 387.974 558.134 387.752C557.812 387.531 558.226 387.062 557.881 387.015C557.536 386.968 557.928 386.67 557.237 386.577C556.684 386.502 556.054 386.652 555.808 386.736C555.578 386.705 555.039 386.703 554.725 386.942C554.412 387.181 553.78 387.869 553.503 388.184L553.065 388.828C553.034 389.059 552.893 389.579 552.58 389.818C552.188 390.117 552.879 390.21 551.749 390.761C550.846 391.202 549.637 391.649 549.145 391.817L549.052 392.508C549.083 392.278 549.164 391.679 549.238 391.126C549.331 390.436 549.77 389.791 549.816 389.446C549.651 388.579 549.043 387.349 548.76 386.842C548.691 386.481 548.485 385.749 548.208 385.712C547.863 385.666 547.956 384.975 547.219 385.227C546.629 385.429 546.189 385.909 546.043 386.124C545.881 386.454 545.489 387.104 545.212 387.067C544.867 387.021 543.99 388.309 543.598 388.608C543.285 388.847 542.653 389.536 542.376 389.85C542.276 389.72 542.086 389.389 542.123 389.113C542.16 388.837 543.016 387.709 543.439 387.18C543.27 386.688 543.012 385.645 543.326 385.406C543.718 385.107 544.455 384.857 544.156 384.464C543.857 384.071 545.192 384.602 544.295 383.427C543.578 382.486 543.199 381.989 543.1 381.859L543.239 380.822C543.286 380.477 543.448 379.795 543.724 379.833C544.069 379.879 544.508 379.235 544.853 379.281C545.199 379.328 546.029 378.384 546.076 378.039C546.122 377.694 546.952 376.75 546.607 376.704C546.262 376.657 546.009 375.92 545.71 375.528C545.471 375.214 545.044 374.383 544.86 374.006L544.654 372.924C545.015 372.855 545.677 372.639 545.438 372.326C545.139 371.934 544.793 371.887 544.84 371.542C544.886 371.196 544.933 370.851 544.979 370.505C545.026 370.16 546.454 370.001 545.464 369.516C544.474 369.031 544.129 368.984 543.783 368.938C543.438 368.891 542.999 369.535 543.092 368.845C543.167 368.292 543.708 367.755 543.969 367.556C544.231 367.357 544.762 366.889 544.8 366.613C544.846 366.267 544.939 365.576 544.594 365.53C544.317 365.492 543.588 365.16 543.258 364.998C543.289 364.768 543.213 364.289 542.66 364.214C541.969 364.121 541.624 364.075 541.279 364.028C541.002 363.991 540.149 364.579 539.757 364.878C539.328 364.586 538.371 364.199 537.984 364.991C537.596 365.783 537.437 366.441 537.406 366.672C537.275 366.771 536.945 366.961 536.668 366.924C536.323 366.878 536.024 366.486 535.931 367.176C535.856 367.729 535.776 368.328 535.745 368.558L535.951 369.641C536.082 369.541 536.481 369.361 537.034 369.435C537.725 369.528 539.106 369.714 538.715 370.013C538.401 370.253 538.061 370.512 537.931 370.611L536.708 371.853L536.821 373.627C537.151 373.789 537.871 374.191 538.11 374.504C538.349 374.818 538.546 375.618 538.615 375.979L536.449 376.391L535.274 377.287L533.613 379.174L533.128 380.164L532.185 379.333L532.731 376.945L532.742 375.188L531.062 374.61C530.8 374.809 530.268 375.277 530.231 375.553C530.185 375.899 530.391 376.981 530.344 377.327C530.307 377.603 530.112 379.054 530.019 379.745C529.773 379.829 529.212 379.988 528.936 379.951C528.591 379.904 528.338 379.167 528.039 378.775C527.74 378.383 527.88 377.347 527.926 377.001C527.963 376.725 528.557 375.797 528.849 375.367C529.142 374.937 529.736 374.009 529.773 373.733C529.819 373.387 530.603 372.79 530.995 372.491C531.387 372.192 531.434 371.846 531.826 371.547C532.217 371.248 532.264 370.903 532.656 370.604C533.048 370.305 533.048 370.305 532.749 369.913C532.45 369.521 532.151 369.129 531.46 369.036C530.769 368.943 530.816 368.598 530.032 369.196C529.405 369.674 528.956 370.223 528.809 370.438L527.381 370.597L526.783 369.813C526.668 369.798 526.378 369.688 526.139 369.375C525.84 368.983 525.494 368.936 525.149 368.89C524.873 368.852 524.312 369.011 524.066 369.095L523.422 368.657C523.222 368.396 522.902 367.813 523.216 367.574C523.608 367.275 524.438 366.332 524.484 365.986C524.531 365.641 524.577 365.296 525.016 364.651C525.454 364.007 525.07 364.25 525.182 363.414C525.295 362.578 524.65 362.14 525.341 362.233C526.032 362.326 526.424 362.027 526.77 362.074C527.115 362.12 528.105 362.605 528.151 362.26C528.189 361.983 528.521 361.255 528.683 360.925C529.174 360.756 530.167 360.351 530.204 360.074C530.251 359.729 532.024 359.616 531.081 358.786C530.138 357.955 529.839 357.563 529.493 357.517C529.148 357.47 529.54 357.171 528.41 357.723C527.507 358.164 526.927 359.164 526.75 359.609C526.665 359.363 526.594 358.674 526.982 357.882C527.37 357.09 527.56 356.201 527.606 355.856C527.139 355.845 526.208 355.792 526.225 355.67C526.245 355.516 525.627 354.886 524.889 355.138C524.152 355.39 523.76 355.689 523.368 355.988C523.054 356.227 521.931 357.084 521.408 357.483L520.212 355.915C520.359 355.7 520.591 355.192 520.352 354.879C520.113 354.565 519.885 353.995 519.8 353.749C519.931 353.65 520.133 353.372 519.893 353.058C519.766 351.916 519.796 351.169 519.827 350.939L520.059 349.212L520.106 348.866C520.221 348.882 520.52 348.922 520.797 348.959C521.073 348.997 521.74 349.79 522.039 350.182C521.893 350.397 521.739 350.845 522.292 350.919C522.982 351.012 523.235 351.75 523.627 351.451C523.94 351.212 524.311 350.722 524.457 350.508C524.65 349.947 525.044 348.758 525.082 348.482C525.128 348.136 525.221 347.445 525.314 346.754C525.388 346.202 525.239 345.572 525.155 345.326L525.732 343.645C525.848 343.661 526.138 343.77 526.377 344.084C526.676 344.476 527.227 345.605 527.619 345.306C528.011 345.007 528.31 345.399 528.702 345.1C529.094 344.801 528.403 344.708 529.486 344.503C530.569 344.297 531.167 345.081 531.605 344.436C532.044 343.792 533.173 343.241 533.565 342.942C533.878 342.703 534.479 342.244 534.741 342.045C534.871 341.945 535.142 341.677 535.179 341.401C535.216 341.124 534.765 340.993 534.535 340.962C534.566 340.732 534.411 340.312 533.545 340.477C532.679 340.642 531.802 340.36 531.472 340.198C531.257 340.052 530.846 339.621 530.921 339.069C530.995 338.516 531.966 338.271 532.442 338.218C532.918 338.165 533.603 337.953 532.535 337.527C530.509 336.903 529.426 337.109 529.08 337.062C528.735 337.016 528.688 337.361 528.091 336.577C527.493 335.793 527.493 335.793 527.24 335.056C526.988 334.318 527.333 334.365 527.034 333.973C526.735 333.581 526.828 332.89 526.875 332.545C526.921 332.199 525.885 332.059 526.669 331.462C527.296 330.983 528.205 330.496 528.582 330.313L529.804 329.07L530.82 326.745L531.744 325.111L533.797 322.926L536.009 322.169L538.772 322.541L539.948 321.644L540.041 320.953L541.243 317.246C541.29 316.901 541.392 316.141 541.429 315.865C541.476 315.519 541.316 314.091 542.007 314.184C542.698 314.277 543.296 315.061 543.734 314.417C544.173 313.772 544.957 313.174 545.395 312.53C545.834 311.886 545.488 311.839 545.581 311.148C545.656 310.595 546.197 310.059 546.458 309.859C546.489 309.629 546.698 309.118 547.288 308.916C547.878 308.714 548.287 308.465 548.418 308.365L547.913 306.89C547.583 306.728 546.941 306.267 547.016 305.714C547.09 305.161 547.171 304.563 547.202 304.332C547.432 304.363 547.911 304.287 547.986 303.735C548.079 303.044 548.564 302.054 548.218 302.007C547.873 301.961 547.527 301.914 547.574 301.569C547.62 301.223 547.461 299.795 547.853 299.496C548.245 299.197 547.554 299.104 547.992 298.46C548.343 297.944 549.245 296.987 549.653 296.573C549.715 296.113 549.848 295.122 549.885 294.846C549.932 294.501 549.586 294.454 549.679 293.763C549.754 293.21 550.065 292.643 550.211 292.428L550.975 289.365C551.351 289.182 552.182 288.754 552.496 288.515C552.888 288.216 553.233 288.263 554.363 287.712C555.492 287.16 556.621 286.609 557.06 285.965C557.41 285.449 558.021 284.922 558.282 284.722C558.497 284.869 558.825 284.866 558.421 283.686C558.017 282.506 557.779 281.489 557.71 281.128C557.741 280.898 557.656 280.488 557.066 280.69C556.329 280.942 555.937 281.241 555.638 280.849C555.399 280.536 554.878 280.395 554.648 280.364C554.548 280.233 554.358 279.903 554.395 279.627C554.433 279.35 556.085 279.268 556.907 279.262C557.513 279.109 558.667 278.725 558.428 278.411C558.189 278.098 556.977 277.864 556.402 277.787C556.255 278.001 555.825 278.412 555.272 278.338C554.581 278.245 553.592 277.76 553.983 277.461C554.297 277.222 554.668 276.733 554.814 276.518C555.19 276.334 556.003 276.045 556.242 276.358C556.541 276.75 556.448 277.441 557.186 277.189C558.66 276.684 557.969 276.591 558.753 275.993C559.584 275.05 560.574 275.535 559.331 274.313C556.614 273.595 556.568 273.94 556.176 274.239C555.862 274.478 555.292 274.706 555.046 274.79L555.279 273.063L555.717 272.419L557.192 271.914L557.723 270.579L556.687 270.439C556.226 270.377 555.384 270.193 555.697 269.954C556.011 269.715 557.334 269.12 557.956 268.852C557.887 268.491 557.699 267.621 557.497 267.031C557.245 266.294 557.039 265.211 557.085 264.866C557.132 264.52 556.926 263.437 556.972 263.092C557.019 262.746 556.72 262.354 556.421 261.963C556.122 261.571 556.467 261.617 555.823 261.179C555.179 260.74 554.833 260.694 554.488 260.647C554.142 260.6 554.096 260.946 553.797 260.554C553.498 260.162 552.9 259.378 552.946 259.033C552.993 258.687 552.302 258.594 552.74 257.95C553.091 257.434 552.979 257.044 552.88 256.913C552.665 256.767 552.166 256.466 551.89 256.428C551.545 256.382 551.292 255.644 551.153 256.681C551.013 257.717 551.266 258.454 550.92 258.408C550.575 258.361 550.621 258.016 550.183 258.66C549.007 259.557 548.821 260.939 547.971 259.417C545.738 257.71 546.13 257.411 545.439 257.318C544.058 257.132 543.712 257.085 543.32 257.384C542.928 257.683 542.144 258.281 541.799 258.234C541.453 258.188 540.716 258.44 540.278 259.085C539.927 259.6 539.746 260.42 539.7 260.765C539.753 261.241 539.85 262.263 539.813 262.539C539.766 262.885 539.673 263.575 539.627 263.921C539.59 264.197 539.687 265.219 539.74 265.695L540.338 266.479C540.406 266.84 540.475 267.552 540.198 267.515C539.853 267.468 539.554 267.076 539.806 267.814C540.008 268.404 540.657 269.335 540.956 269.727L539.182 269.84L538.604 271.521C538.358 271.605 537.779 271.902 537.428 272.417C536.99 273.062 537.242 273.799 536.252 273.314C535.263 272.829 534.572 272.736 534.665 272.045C534.758 271.354 534.804 271.009 534.552 270.271C534.299 269.534 533.216 269.74 533.309 269.049C533.402 268.358 533.196 267.275 533.588 266.976C533.902 266.737 534.303 266.017 534.465 265.688C534.91 265.865 535.819 266.081 535.893 265.528C535.986 264.837 535.873 263.064 535.92 262.718C535.966 262.373 536.106 261.336 535.807 260.944C535.508 260.552 535.508 260.552 534.817 260.459C534.126 260.366 533.874 259.629 533.09 260.227C532.306 260.825 532.352 260.479 531.867 261.469C531.479 262.261 531.258 263.38 531.197 263.84L530.619 265.521C530.357 265.72 529.766 266.11 529.489 266.072C529.144 266.026 529.144 266.026 528.453 265.933C527.762 265.84 527.071 265.747 527.025 266.092C526.978 266.438 526.978 266.438 526.287 266.345C525.596 266.252 524.905 266.158 524.467 266.803C524.534 268.922 524.58 268.577 524.832 269.314C525.085 270.051 525.982 271.227 525.59 271.526C525.198 271.825 524.667 273.16 524.321 273.114C523.976 273.067 523.677 272.675 523.424 271.938C523.222 271.348 522.711 271.138 522.481 271.107C522.058 271.637 521.171 272.479 521.006 271.612C520.8 270.529 521.836 270.669 521.192 270.23C520.548 269.792 520.986 269.148 520.156 270.091C519.325 271.034 518.634 270.941 518.887 271.678C519.089 272.268 519.046 273.107 519 273.452C518.953 273.798 518.722 274.47 518.17 274.396C517.479 274.302 516.741 274.555 516.143 273.771C515.545 272.987 514.947 272.203 514.994 271.858C515.04 271.512 515.479 270.868 515.18 270.476C514.881 270.084 513.938 269.253 513.984 268.908C514.031 268.562 514.031 268.562 514.515 267.573C514.903 266.781 515.984 266.246 516.475 266.078C517.035 266.271 518.225 266.665 518.501 266.703C518.847 266.749 519.239 266.45 519.93 266.543C520.621 266.636 521.657 266.776 521.703 266.431C520.76 265.6 520.415 265.554 519.724 265.46C519.033 265.367 518.342 265.274 518.043 264.882C517.804 264.569 517.576 263.999 517.491 263.753L517.126 261.242L517.358 259.515C517.75 259.216 518.484 258.47 518.282 257.88C518.08 257.29 517.569 257.081 517.338 257.05L517.823 256.06L518.654 255.117L520.912 254.014C521.174 253.815 521.567 253.329 521.052 252.978C520.407 252.539 521.098 252.632 520.108 252.147C519.317 251.759 518.857 251.862 518.727 251.961L519.305 250.281C519.519 250.427 519.968 250.581 520.042 250.028C520.135 249.337 520.48 249.384 519.49 248.899C518.501 248.414 519.145 248.852 518.202 248.022C517.258 247.191 517.697 246.547 517.052 246.108C516.408 245.67 516.547 244.634 515.418 245.185C514.289 245.736 514.242 246.082 513.897 246.035C513.551 245.989 512.515 245.849 512.608 245.158C512.701 244.467 512.608 245.158 512.747 244.122C512.859 243.293 513.471 242.226 513.764 241.797L512.176 240.528C511.977 240.266 511.587 239.675 511.624 239.398C511.671 239.053 513.146 238.548 512.156 238.063C511.125 237.362 511.022 236.035 511.099 235.459C511.223 234.538 511.72 232.94 512.714 233.918C513.708 234.896 514.155 235.402 514.255 235.532L514.461 236.615C514.906 236.792 515.865 237.156 516.142 237.193C516.487 237.24 517.431 238.07 517.776 238.117C518.121 238.163 518.56 237.519 519.251 237.612C519.942 237.705 522.014 237.984 522.061 237.639C522.107 237.293 522.798 237.386 523.33 236.051C523.861 234.716 523.861 234.716 523.954 234.025C524.047 233.334 524.784 233.082 524.532 232.344C524.33 231.754 523.85 231.315 523.635 231.168L521.815 231.627L520.593 232.869C520.247 232.822 519.487 232.72 519.211 232.683C518.865 232.636 518.752 230.862 517.782 232.842C515.617 233.254 515.71 232.563 515.411 232.171C515.112 231.779 513.936 232.676 514.813 231.387C515.514 230.356 515.951 229.899 516.082 229.799C516.082 229.799 516.16 229.739 516.474 229.5C516.787 229.261 516.728 228.48 516.66 228.119C516.591 227.758 516.523 227.045 516.799 227.082C517.075 227.119 517.804 227.452 518.134 227.614C518.119 227.729 518.185 227.761 518.573 226.969C519.058 225.98 519.151 225.289 519.496 225.335C519.842 225.382 521.223 225.568 521.177 225.913C521.13 226.259 521.775 226.697 522.027 227.435C522.28 228.172 522.692 230.338 523.223 229.003C523.755 227.667 523.456 227.275 523.549 226.585C523.642 225.894 523.781 224.857 523.827 224.512C523.874 224.166 522.492 223.98 522.147 223.934C521.801 223.887 520.419 223.701 521.549 223.15C522.678 222.599 522.977 222.99 523.714 222.738C524.452 222.486 525.375 220.852 524.684 220.759C524.132 220.684 523.302 220.572 522.957 220.526L521.622 219.994L520.446 220.891C519.923 221.29 518.809 222.077 518.533 222.04C518.187 221.994 517.403 222.591 517.357 222.937C517.31 223.282 517.862 224.412 517.563 224.02C517.264 223.628 516.759 222.153 516.46 221.761C516.221 221.447 515.793 220.616 515.61 220.24L516.095 219.25C516.617 218.851 517.317 218.008 515.935 217.821C514.208 217.589 514.208 217.589 513.517 217.496C512.964 217.421 513.472 216.083 513.796 215.423C513.957 215.093 514.35 214.443 514.626 214.48C514.972 214.526 515.57 215.31 515.915 215.357C516.26 215.403 516.905 215.842 517.297 215.543C517.689 215.244 517.689 215.244 518.333 215.683C519.715 215.869 520.06 215.915 520.452 215.616C520.844 215.317 521.648 217.184 521.695 216.839C521.741 216.493 522.479 216.241 522.525 215.895C522.562 215.619 522.173 215.027 521.974 214.766L520.386 213.497C520.286 213.366 520.018 213.096 519.741 213.059C519.465 213.021 518.413 213.349 517.921 213.517C517.131 213.293 515.559 212.777 515.596 212.5C515.642 212.155 515.091 211.025 514.792 210.633C514.493 210.241 514.148 210.195 513.849 209.803C513.55 209.411 512.998 208.282 513.689 208.375C514.38 208.468 515.164 207.87 516.546 208.056C517.928 208.242 516.752 209.139 518.273 208.289C519.794 207.438 520.532 207.186 520.578 206.841C520.625 206.495 520.625 206.495 520.718 205.804C520.811 205.113 521.156 205.16 520.512 204.721C519.867 204.283 519.568 203.891 519.176 204.19C518.784 204.489 519.037 205.226 517.655 205.04C516.273 204.854 516.273 204.854 515.928 204.807C515.582 204.761 515.33 204.023 515.722 203.724C516.898 202.828 517.037 201.791 517.728 201.884C518.465 201.632 519.249 201.034 519.296 200.689C519.333 200.412 519.037 199.13 518.884 198.523L518.126 196.311C517.974 195.704 517.677 194.421 517.714 194.145C517.761 193.8 517.601 192.371 516.91 192.278C516.22 192.185 515.874 192.139 515.137 192.391C514.399 192.643 514.24 191.215 513.961 193.288C513.682 195.36 513.682 195.36 512.553 195.912C511.649 196.353 510.901 196.862 510.639 197.061C510.017 197.329 508.814 198.081 508.979 198.947C509.185 200.03 509.643 201.851 510.288 202.289C510.932 202.728 510.978 202.382 512.174 203.95C513.277 206.209 514.247 204.229 512.885 206.508C511.796 208.331 511.262 208.986 511.132 209.085C510.802 208.924 510.082 208.522 509.843 208.208C509.544 207.816 507.956 206.547 508.095 205.511C508.207 204.682 508.067 203.983 507.982 203.737L506.488 201.777C506.22 201.155 505.693 199.841 505.73 199.565C505.777 199.22 504.096 198.641 505.225 198.09C506.355 197.539 506.401 197.193 506.793 196.895C507.185 196.596 508.268 196.39 508.314 196.044C508.361 195.699 508.5 194.663 509.284 194.065C509.911 193.586 510.653 192.608 510.945 192.178C510.668 192.493 510.428 192.882 511.682 191.926C513.25 190.73 512.858 191.029 512.606 190.292C512.353 189.554 511.317 189.415 511.064 188.677C510.862 188.087 510.643 187.448 510.559 187.202L511.091 185.867L512.24 187.78C512.57 187.942 513.327 188.068 513.715 187.276C514.2 186.286 513.901 185.894 513.994 185.203C514.087 184.512 513.834 183.775 514.226 183.476C514.618 183.177 515.263 183.615 515.402 182.579C515.514 181.75 515.665 180.622 515.727 180.161C515.92 179.601 516.098 178.452 515.269 178.341C514.233 178.201 513.887 178.155 513.542 178.108C513.196 178.061 511.469 177.829 510.639 178.772C509.808 179.715 509.071 179.968 509.024 180.313C508.978 180.659 509.277 181.051 508.885 181.349C508.493 181.648 508.54 181.303 507.503 181.163C506.467 181.024 505.729 181.276 505.039 181.183C504.348 181.09 504.002 181.043 503.61 181.342C503.297 181.582 502.634 182.5 502.341 182.93C501.803 183.444 500.718 184.54 500.681 184.817C500.634 185.162 500.588 185.507 500.196 185.806C499.804 186.105 499.664 187.142 499.319 187.095C498.973 187.049 499.066 186.358 498.767 185.966C498.469 185.574 497.479 185.089 498.654 184.192C499.83 183.295 499.83 183.295 499.877 182.95C499.923 182.604 499.97 182.259 500.063 181.568C500.156 180.877 500.249 180.186 499.95 179.794C499.651 179.402 498.707 178.572 498.408 178.18C498.169 177.866 497.343 176.512 496.96 175.874C496.991 175.644 496.993 175.105 496.754 174.792C496.455 174.4 496.688 172.672 495.558 173.224C494.655 173.665 494.106 174.435 493.944 174.765C493.583 174.833 492.82 174.754 492.655 173.888C492.449 172.805 494.223 172.692 494.316 172.001C494.39 171.449 492.584 169.189 491.672 168.128C491.594 168.704 491.389 169.708 491.187 169.118C490.934 168.38 489.898 168.241 489.692 167.158C489.486 166.075 489.28 164.992 488.244 164.853C486.47 164.965 486.908 164.321 486.629 166.394C486.406 168.052 486.227 169.388 486.165 169.848C486.364 170.109 486.574 170.466 485.819 169.802C484.876 168.971 484.258 165.723 484.304 165.377C484.351 165.032 484.49 163.995 483.846 163.557C483.201 163.118 482.902 162.726 482.165 162.979C481.428 163.231 481.773 163.278 480.69 163.483C479.824 163.648 478.624 164.026 478.133 164.194C478.033 164.063 477.714 163.645 477.236 163.018C476.638 162.234 476.199 162.879 476.246 162.533C476.292 162.188 476.731 161.543 476.086 161.105C475.442 160.666 474.844 159.882 474.499 159.836C474.222 159.799 473.524 159.236 473.21 158.959C472.995 158.813 472.427 158.502 471.874 158.427C471.183 158.334 470.493 158.241 469.802 158.148C469.111 158.055 467.337 158.168 466.992 158.121C466.646 158.075 465.517 158.626 465.264 157.889C465.105 156.46 465.404 156.852 465.497 156.161C465.571 155.609 465.652 155.01 465.683 154.78C465.468 154.633 464.969 154.332 464.693 154.295C464.347 154.248 464.002 154.202 463.61 154.5C463.296 154.74 462.496 154.937 462.135 155.005C462.412 154.691 462.975 153.993 463.012 153.716C463.059 153.371 462.022 153.231 462.461 152.587C462.899 151.943 463.982 151.737 463.338 151.298C462.693 150.86 463.338 151.298 462.049 150.421C460.76 149.544 461.245 148.555 460.414 149.498C459.75 150.252 459.398 151.823 459.305 152.514L458.063 151.291L456.661 148.641C457.006 148.687 457.587 148.554 457.146 147.651C456.594 146.521 456.873 144.449 455.306 145.644C454.051 146.601 453.583 147.991 453.505 148.567C453.499 147.746 453.356 146.015 452.841 145.664C452.197 145.226 451.346 143.704 450.516 144.647C449.386 145.199 447.593 142.847 447.201 143.146C446.809 143.445 446.809 143.445 446.025 144.043C445.241 144.64 445.102 145.677 444.318 146.274C443.534 146.872 441.255 145.51 442.703 147.816C447.606 150.586 448.802 152.154 448.317 153.144C447.832 154.134 448.822 154.619 447.739 154.825C446.656 155.03 446.424 156.758 445.62 154.891C444.816 153.024 445.6 152.426 444.657 151.596C443.713 150.765 443.667 151.111 443.069 150.327C442.471 149.543 443.208 149.29 441.92 148.413C438.95 146.958 439.342 146.659 438.259 146.865C437.176 147.071 435.15 146.446 436.691 148.061C439.222 150.16 437.495 149.928 440.073 151.682C442.667 155.407 443.652 157.322 443.82 157.814L443.335 158.804L442.066 160.391C441.874 160.951 441.507 161.934 441.581 161.381C440.625 160.127 440 160.934 439.808 161.494L439.09 164.211L437.615 164.716L437.11 163.241C437.095 163.356 437.101 163.31 437.25 162.204C437.436 160.823 437.482 160.477 437.23 159.74C436.977 159.002 437.509 157.667 436.286 158.909C435.309 159.903 435.033 160.382 435.018 160.497C434.488 160.074 433.518 159.099 433.868 158.584C434.307 157.939 435.782 157.434 435.483 157.042C435.184 156.65 434.838 156.604 434.931 155.913C435.024 155.222 437.19 154.81 436.891 154.418C436.592 154.027 434.659 152.711 436.386 152.944C438.113 153.176 438.366 153.914 438.412 153.568C438.459 153.223 439.681 151.981 438.645 151.841C437.608 151.701 435.741 152.505 435.442 152.113C435.144 151.721 436.206 149.051 435.17 148.911C434.134 148.772 433.788 148.725 433.396 149.024C433.083 149.263 431.897 150.581 431.344 151.209C431.282 151.67 431.208 152.739 431.41 153.329C431.663 154.066 431.57 154.757 431.869 155.149C432.168 155.541 432.075 156.232 432.028 156.577C431.982 156.923 431.683 156.531 431.543 157.567C431.432 158.396 431.541 159.325 431.61 159.686C431.218 159.985 429.696 160.835 429.537 159.407C429.377 157.979 429.377 157.979 429.517 156.942C429.656 155.906 430.347 155.999 429.889 154.179C429.559 152.446 427.634 151.765 426.713 151.641C427.006 151.211 427.392 150.255 426.6 149.867C425.61 149.382 423.883 149.149 423.93 148.804C423.976 148.458 423.976 148.458 424.069 147.768C424.162 147.077 424.946 146.479 423.611 145.947C422.275 145.416 421.883 145.715 421.192 145.622C420.502 145.528 419.027 146.033 418.774 145.296C418.522 144.558 418.867 144.605 418.615 143.868C418.362 143.13 418.502 142.094 417.811 142.001C415.831 141.031 415.14 140.938 414.748 141.236C414.356 141.535 413.619 141.788 413.572 142.133C413.526 142.479 412.172 143.351 411.912 144.02C411.652 144.688 411.819 144.711 411.427 145.01C411.113 145.249 410.512 145.707 410.251 145.906C409.912 146.681 409.156 148.291 408.843 148.53C408.451 148.829 406.976 149.334 406.93 149.679C406.883 150.025 407.434 151.154 407.341 151.845C407.249 152.536 407.687 151.892 407.8 153.665C407.913 155.439 407.335 157.12 408.119 156.522C408.903 155.924 408.006 154.748 409.939 156.064C411.872 157.379 411.573 156.987 412.171 157.771C412.769 158.555 412.517 157.818 413.068 158.947C413.62 160.077 414.171 161.206 413.434 161.458C412.696 161.711 414.238 163.325 411.959 161.963C410.136 160.874 409.618 161.062 409.587 161.292C409.472 161.276 409.163 161.305 408.85 161.544C408.458 161.843 408.066 162.142 408.319 162.88C408.571 163.617 408.339 165.344 408.936 166.128C409.534 166.912 409.488 167.258 410.431 168.088C411.186 168.752 411.973 169.703 412.272 170.095L412.385 171.868L413.235 173.39C412.958 173.704 412.395 174.402 412.358 174.678C412.321 174.955 411.957 175.914 411.78 176.359C411.619 176.689 411.493 177.446 412.285 177.834C413.275 178.319 413.209 176.2 413.574 178.711C413.893 181.568 413.8 182.258 412.764 182.119C411.727 181.979 412.073 182.026 411.382 181.933C410.691 181.84 410.784 181.149 409.608 182.045C408.432 182.942 407.947 183.932 407.555 184.231C407.163 184.53 406.772 184.829 407.024 185.566C407.277 186.304 406.978 185.912 407.184 186.995C407.39 188.077 406.858 189.413 406.466 189.712C406.153 189.951 405.813 190.21 405.682 190.309L403.862 190.768L402.5 193.046C402.292 193.721 401.825 194.925 401.623 194.335C401.371 193.597 401.716 193.644 401.118 192.86C400.521 192.076 400.222 191.684 399.624 190.9C399.026 190.116 397.159 190.92 396.953 189.837C396.747 188.754 397.577 187.811 396.887 187.718C396.196 187.625 396.149 187.97 394.468 187.392C392.788 186.814 393.87 186.608 392.143 186.375C390.416 186.143 389.333 186.349 389.287 186.694C389.24 187.04 389.792 188.169 390.09 188.561C390.389 188.953 391.286 190.129 391.585 190.521C391.884 190.913 392.137 191.65 392.436 192.042C392.735 192.434 393.519 191.836 392.848 194.208C391.923 196.897 391.138 198.198 390.862 198.513C390.899 199.104 390.883 199.922 390.516 198.466C390.151 195.955 389.805 195.908 389.46 195.862C389.183 195.825 388.623 195.984 388.377 196.068C388.246 196.167 387.976 196.436 387.938 196.712C387.901 196.988 388.136 198.732 388.257 199.569L387.68 201.249C387.764 201.495 387.992 202.065 388.231 202.379C388.47 202.692 388.437 203.462 388.39 203.807L387.56 204.75C387.529 204.981 387.329 205.423 386.776 205.348C386.085 205.255 385.74 205.209 385.049 205.115C384.358 205.022 384.013 204.976 383.275 205.228C382.685 205.43 381.555 205.817 381.063 205.985L380.465 205.201C380.35 205.186 380.138 205.017 380.213 204.464C380.306 203.773 379.867 204.417 380.053 203.036C380.239 201.654 380.146 202.345 380.286 201.308C380.425 200.272 380.126 199.88 379.967 198.452C379.807 197.024 380.246 196.379 379.9 196.333C379.624 196.295 378.633 196.162 378.173 196.1C378.073 195.969 377.708 195.897 377.043 196.651C376.379 197.406 376.182 197.825 376.167 197.94C375.989 198.385 375.557 199.335 375.243 199.574C374.851 199.873 374.459 200.172 374.366 200.863C374.292 201.416 374.318 202.967 374.34 203.673L375.19 205.194C375.29 205.325 375.333 205.706 374.705 206.184C373.922 206.782 372.885 206.642 372.746 207.679C372.606 208.715 372.859 209.452 372.766 210.143C372.673 210.834 372.925 211.572 371.935 211.087C370.946 210.602 369.909 210.462 369.956 210.117C370.002 209.771 370.301 210.163 369.75 209.034C368.517 207.742 367.978 207.388 367.863 207.373L365.744 207.439C365.744 207.439 365.665 207.499 365.352 207.738L365.212 208.774L364.774 209.419C364.774 209.419 364.765 209.488 364.727 209.764C364.69 210.04 364.358 210.769 364.196 211.099L364.15 211.445L364.747 212.229L365.438 212.322L365.345 213.013L364.953 213.312L365.505 214.441L366.103 215.225L366.747 215.663L367.345 216.447L368.242 217.623L368.448 218.706C368.548 218.837 368.609 219.08 368.056 219.005C367.503 218.931 366.705 218.589 366.375 218.427L365.385 217.942C365.171 217.796 364.672 217.494 364.396 217.457C364.119 217.42 363.82 217.379 363.705 217.364L363.014 217.271L362.622 217.57L363.173 218.699L364.369 220.267C364.323 220.612 364.299 221.313 364.575 221.35C364.851 221.387 365.288 222.149 365.472 222.526C365.671 222.787 366.061 223.379 366.023 223.655C365.977 224.001 366.322 224.047 366.276 224.393C366.229 224.738 366.874 225.177 366.528 225.13C366.252 225.093 366.121 225.544 366.09 225.774C366.059 226.005 366.066 226.475 366.342 226.512C366.688 226.558 367.332 226.997 367.678 227.043C367.954 227.081 368.714 227.183 369.06 227.229C369.321 227.03 369.903 226.71 370.142 227.024C370.382 227.337 371.07 227.969 371.385 228.246L372.375 228.731L373.617 229.954L373.916 230.346L373.823 231.036L373.384 231.681L373.982 232.465C373.967 232.58 373.927 232.879 373.889 233.156C373.852 233.432 373.32 233.9 373.059 234.099C372.928 234.199 372.589 234.458 372.275 234.697C371.883 234.996 371.146 235.248 371.099 235.594C371.062 235.87 370.592 235.877 370.362 235.846L370.316 236.191L368.98 235.66C368.896 235.414 368.659 234.913 368.382 234.876C368.106 234.839 367.009 233.753 366.496 233.215L364.861 232.291C364.416 232.114 363.535 231.691 363.572 231.414C363.619 231.069 362.676 230.238 362.629 230.584C362.592 230.86 361.954 230.376 361.639 230.099L361.041 229.315L361.134 228.624L360.583 227.495C360.514 227.134 360.308 226.402 360.031 226.365C359.755 226.328 359.487 226.057 359.387 225.927L359.274 224.153L359.114 222.725L358.609 221.25L358.357 220.512C358.288 220.151 358.082 219.42 357.806 219.383C357.529 219.346 357.03 219.044 356.816 218.898C356.878 218.437 356.933 217.507 356.656 217.47C356.38 217.432 356.173 216.701 356.105 216.34L355.46 215.902C355.376 215.656 355.139 215.155 354.862 215.118C354.517 215.071 354.218 214.679 353.873 214.633C353.527 214.586 353.182 214.54 352.836 214.493C352.56 214.456 350.91 213.999 350.119 213.775L349.129 213.29L347.103 212.666L346.505 211.882C346.39 211.866 346.09 211.826 345.814 211.789C345.469 211.742 345.077 212.041 345.03 212.387C344.993 212.663 344.691 213.162 344.545 213.376L343.854 213.283L342.38 213.788C342.134 213.872 341.564 214.1 341.25 214.339C340.858 214.638 340.074 215.236 339.729 215.19C339.453 215.152 339.122 215.342 338.992 215.442L338.115 216.731L337.377 216.983L337.331 217.328L336.202 217.88L335.624 219.56L335.996 216.797L337.218 215.555L338.002 214.957L339.271 213.369C339.747 213.316 340.708 213.141 340.745 212.864C340.792 212.519 341.23 211.875 341.576 211.921C341.852 211.958 342.873 211.862 343.349 211.808L343.788 211.164L343.376 208.998C343.146 208.967 342.694 208.836 342.732 208.56C342.769 208.283 341.919 207.63 341.489 207.337L340.2 206.46L339.948 205.723L338.958 205.238C338.958 205.238 338.88 205.298 338.566 205.537C338.174 205.836 337.689 206.826 337.344 206.779C337.067 206.742 336.414 207.592 336.121 208.021L335.198 209.655L332.269 213.13L330.907 215.408C330.73 215.853 330.297 216.803 329.983 217.042C329.67 217.281 329.499 218.032 329.452 218.377L329.014 219.022L327.838 219.919C327.723 219.903 327.433 219.794 327.193 219.48C326.954 219.166 326.496 218.565 326.297 218.304L326.781 217.314L328.349 216.119L328.535 214.737L329.412 213.448L330.774 211.17L330.129 210.731C330.26 210.631 330.531 210.363 330.568 210.087C330.614 209.741 331.053 209.097 331.445 208.798C331.758 208.559 332.359 208.101 332.62 207.901C332.505 207.886 332.413 207.873 332.966 207.948C333.519 208.022 334.086 208.333 334.301 208.479L334.786 207.49L335.663 206.201L336.194 204.866C336.356 204.536 336.689 203.807 336.726 203.53C336.772 203.185 337.211 202.541 337.257 202.195C337.304 201.85 337.304 201.85 336.958 201.803C336.682 201.766 336.382 201.726 336.267 201.71L335.437 202.653L334.952 203.643C334.89 204.104 334.697 205.016 334.421 204.978C334.075 204.932 333.936 205.968 333.59 205.922C333.314 205.884 333.015 205.844 332.899 205.829L332.693 204.746L332.833 203.709L333.318 202.72L333.756 202.075C333.787 201.845 333.858 201.315 333.896 201.039C333.933 200.763 333.544 200.171 333.344 199.91L332.354 199.424L331.411 198.594L330.581 199.537C330.372 200.213 329.947 201.633 329.91 201.909C329.873 202.185 329.279 203.113 328.986 203.543L327.419 204.739C327.273 204.953 326.911 205.374 326.635 205.337C326.358 205.299 325.505 205.888 325.113 206.187L323.891 207.429L322.323 208.625L320.503 209.083C320.373 209.182 320.121 209.313 320.158 209.036C320.195 208.76 320.528 208.031 320.689 207.701L321.52 206.758L322.788 205.17L324.403 203.629L325.877 203.124L326.914 203.264L327.007 202.573C327.168 202.243 327.501 201.514 327.538 201.238C327.575 200.961 328.231 199.573 328.554 198.913C328.732 198.468 329.155 197.587 329.431 197.624C329.708 197.661 330.069 197.241 330.215 197.026L330.009 195.943C330.155 195.728 330.378 195.29 330.102 195.252C329.757 195.206 329.019 195.458 329.066 195.113C329.103 194.836 328.652 194.705 328.421 194.674L328.215 193.591L328.654 192.947L329.83 192.05C329.845 191.935 329.807 191.696 329.531 191.658C329.254 191.621 328.233 191.718 327.757 191.771C327.527 191.74 327.057 191.747 327.02 192.023C326.982 192.3 326.712 192.568 326.581 192.668L326.076 191.193L325.432 190.754L324.741 190.661L324.442 190.269L324.581 189.233L325.113 187.898C325.144 187.668 325.137 187.198 324.86 187.16C324.515 187.114 323.777 187.366 323.432 187.32C323.156 187.283 322.365 187.41 322.004 187.479C321.758 187.563 321.257 187.801 321.22 188.077C321.183 188.353 320.912 188.622 320.781 188.721C320.62 189.051 320.227 189.702 319.951 189.665C319.675 189.627 318.684 189.494 318.224 189.432L317.971 188.694L318.456 187.705C318.487 187.474 318.618 187.023 318.895 187.06C319.24 187.107 319.24 187.107 319.632 186.808C320.024 186.509 320.761 186.257 320.808 185.911C320.845 185.635 321.147 185.136 321.293 184.921L321.04 184.184L321.18 183.148C321.211 182.917 321.204 182.447 320.927 182.41C320.651 182.373 320.121 182.302 319.891 182.271C319.545 182.224 318.845 182.2 318.808 182.476C318.771 182.753 317.349 182.866 316.642 182.888L316.204 183.533L314.291 184.682C314.275 184.797 314.175 185.018 313.899 184.981C313.622 184.943 312.11 185.209 311.388 185.346L310.258 185.897L310.398 184.861C310.905 184.577 311.997 183.951 312.311 183.712C312.703 183.413 313.394 183.506 313.44 183.16C313.478 182.884 314.009 182.416 314.271 182.217L313.327 181.387L312.384 180.556L311.74 180.118L311.534 179.035L311.421 177.261C311.467 176.915 311.491 176.215 311.215 176.178C310.869 176.132 309.972 174.956 310.019 174.61C310.056 174.334 310.096 174.034 310.112 173.919C310.143 173.689 310.264 173.307 310.504 173.62C310.803 174.012 311.354 175.142 311.699 175.188C311.976 175.225 312.413 175.988 312.596 176.364C312.796 176.625 313.185 177.217 313.148 177.494C313.111 177.77 313.239 178.561 313.307 178.922L314.297 179.407C314.428 179.307 314.767 179.048 315.081 178.809C315.395 178.57 316.257 177.912 316.649 177.613L317.087 176.969L316.429 176.529Z" stroke="#F1E2D2" stroke-opacity="0.16" stroke-width="1.15795"/>
</g>
<defs>
<filter id="filter0_g_2338_28489" x="-6" y="-6" width="662" height="572" filterUnits="userSpaceOnUse" color-interpolation-filters="sRGB">
<feFlood flood-opacity="0" result="BackgroundImageFix"/>
<feBlend mode="normal" in="SourceGraphic" in2="BackgroundImageFix" result="shape"/>
<feTurbulence type="fractalNoise" baseFrequency="0.125 0.125" numOctaves="3" seed="3439" />
<feDisplacementMap in="shape" scale="12" xChannelSelector="R" yChannelSelector="G" result="displacedImage" width="100%" height="100%" />
<feMerge result="effect1_texture_2338_28489">
<feMergeNode in="displacedImage"/>
</feMerge>
</filter>
</defs>
</svg>
